<svg xmlns="http://www.w3.org/2000/svg" width="413" height="71" viewBox="0 0 413 71"><g transform="translate(-58 -480)"><rect width="413" height="65" rx="10" transform="translate(58 483)" fill="#fff"/><path d="M2.52-11.16a1.535,1.535,0,0,1-1.107-.423,1.4,1.4,0,0,1-.441-1.053,1.4,1.4,0,0,1,.441-1.053,1.535,1.535,0,0,1,1.107-.423,1.535,1.535,0,0,1,1.107.423,1.4,1.4,0,0,1,.441,1.053,1.4,1.4,0,0,1-.441,1.053A1.535,1.535,0,0,1,2.52-11.16ZM3.762-9.972V0H1.242V-9.972Zm14.868-.144a4,4,0,0,1,2.961,1.125A4.246,4.246,0,0,1,22.716-5.85V0H20.2V-5.508A2.491,2.491,0,0,0,19.6-7.3a2.136,2.136,0,0,0-1.62-.621,2.166,2.166,0,0,0-1.629.621,2.468,2.468,0,0,0-.6,1.791V0H13.23V-5.508A2.491,2.491,0,0,0,12.636-7.3a2.136,2.136,0,0,0-1.62-.621A2.189,2.189,0,0,0,9.369-7.3a2.468,2.468,0,0,0-.6,1.791V0H6.246V-9.972h2.52v1.206a3.354,3.354,0,0,1,1.251-.99,3.9,3.9,0,0,1,1.683-.36,4.329,4.329,0,0,1,2.088.5A3.469,3.469,0,0,1,15.21-8.208a3.61,3.61,0,0,1,1.413-1.386A4.023,4.023,0,0,1,18.63-10.116Zm9,1.584a3.827,3.827,0,0,1,1.341-1.143,4.064,4.064,0,0,1,1.953-.459,4.361,4.361,0,0,1,2.313.63,4.433,4.433,0,0,1,1.638,1.791,5.757,5.757,0,0,1,.6,2.691,5.867,5.867,0,0,1-.6,2.709A4.535,4.535,0,0,1,33.237-.486a4.27,4.27,0,0,1-2.313.648,4.024,4.024,0,0,1-1.935-.45A4.151,4.151,0,0,1,27.63-1.422V4.752H25.11V-9.972h2.52ZM32.9-5.022a3.129,3.129,0,0,0-.369-1.557,2.555,2.555,0,0,0-.972-1,2.6,2.6,0,0,0-1.3-.342,2.517,2.517,0,0,0-1.287.351A2.605,2.605,0,0,0,28-6.552a3.181,3.181,0,0,0-.369,1.566A3.181,3.181,0,0,0,28-3.42,2.605,2.605,0,0,0,28.971-2.4a2.517,2.517,0,0,0,1.287.351,2.5,2.5,0,0,0,1.3-.36,2.672,2.672,0,0,0,.972-1.026A3.22,3.22,0,0,0,32.9-5.022ZM41.742.162A5.252,5.252,0,0,1,39.15-.477a4.6,4.6,0,0,1-1.809-1.809,5.421,5.421,0,0,1-.657-2.7,5.305,5.305,0,0,1,.675-2.7A4.691,4.691,0,0,1,39.2-9.5a5.355,5.355,0,0,1,2.61-.639,5.355,5.355,0,0,1,2.61.639,4.691,4.691,0,0,1,1.845,1.809,5.305,5.305,0,0,1,.675,2.7,5.2,5.2,0,0,1-.693,2.7A4.8,4.8,0,0,1,44.379-.477,5.443,5.443,0,0,1,41.742.162Zm0-2.2a2.621,2.621,0,0,0,1.287-.333,2.42,2.42,0,0,0,.963-1,3.367,3.367,0,0,0,.36-1.62A3,3,0,0,0,43.6-7.173a2.456,2.456,0,0,0-1.827-.765,2.4,2.4,0,0,0-1.809.765,3.047,3.047,0,0,0-.729,2.187A3.1,3.1,0,0,0,39.951-2.8,2.341,2.341,0,0,0,41.742-2.034Zm9.576-6.39a3.543,3.543,0,0,1,1.269-1.242,3.529,3.529,0,0,1,1.791-.45V-7.47h-.666a2.553,2.553,0,0,0-1.791.558,2.572,2.572,0,0,0-.6,1.944V0H48.8V-9.972h2.52ZM59-7.9v4.824a.953.953,0,0,0,.243.729,1.194,1.194,0,0,0,.819.225h1.17V0H59.652q-3.186,0-3.186-3.1V-7.9H55.278v-2.07h1.188v-2.466H59v2.466h2.232V-7.9ZM75.042-2.394h-5L69.21,0H66.564l4.518-12.582h2.934L78.534,0H75.87ZM74.358-4.41,72.54-9.666,70.722-4.41ZM83.16-7.9v4.824a.953.953,0,0,0,.243.729,1.194,1.194,0,0,0,.819.225h1.17V0H83.808q-3.186,0-3.186-3.1V-7.9H79.434v-2.07h1.188v-2.466H83.16v2.466h2.232V-7.9ZM91.638.162a5.252,5.252,0,0,1-2.592-.639,4.6,4.6,0,0,1-1.809-1.809,5.421,5.421,0,0,1-.657-2.7,5.305,5.305,0,0,1,.675-2.7A4.691,4.691,0,0,1,89.1-9.5a5.355,5.355,0,0,1,2.61-.639,5.355,5.355,0,0,1,2.61.639,4.691,4.691,0,0,1,1.845,1.809,5.305,5.305,0,0,1,.675,2.7,5.2,5.2,0,0,1-.693,2.7A4.8,4.8,0,0,1,94.275-.477,5.444,5.444,0,0,1,91.638.162Zm0-2.2a2.621,2.621,0,0,0,1.287-.333,2.42,2.42,0,0,0,.963-1,3.367,3.367,0,0,0,.36-1.62A3,3,0,0,0,93.5-7.173a2.456,2.456,0,0,0-1.827-.765,2.4,2.4,0,0,0-1.809.765,3.047,3.047,0,0,0-.729,2.187A3.1,3.1,0,0,0,89.847-2.8,2.341,2.341,0,0,0,91.638-2.034Zm19.44-8.082a4,4,0,0,1,2.961,1.125,4.246,4.246,0,0,1,1.125,3.141V0h-2.52V-5.508A2.491,2.491,0,0,0,112.05-7.3a2.136,2.136,0,0,0-1.62-.621A2.166,2.166,0,0,0,108.8-7.3a2.468,2.468,0,0,0-.6,1.791V0h-2.52V-5.508a2.491,2.491,0,0,0-.594-1.791,2.136,2.136,0,0,0-1.62-.621,2.189,2.189,0,0,0-1.647.621,2.468,2.468,0,0,0-.6,1.791V0h-2.52V-9.972h2.52v1.206a3.354,3.354,0,0,1,1.251-.99,3.9,3.9,0,0,1,1.683-.36,4.329,4.329,0,0,1,2.088.5,3.469,3.469,0,0,1,1.422,1.413,3.61,3.61,0,0,1,1.413-1.386A4.023,4.023,0,0,1,111.078-10.116Zm7.758-1.044a1.535,1.535,0,0,1-1.107-.423,1.4,1.4,0,0,1-.441-1.053,1.4,1.4,0,0,1,.441-1.053,1.535,1.535,0,0,1,1.107-.423,1.535,1.535,0,0,1,1.107.423,1.4,1.4,0,0,1,.441,1.053,1.4,1.4,0,0,1-.441,1.053A1.535,1.535,0,0,1,118.836-11.16Zm1.242,1.188V0h-2.52V-9.972Zm1.836,4.986a5.593,5.593,0,0,1,.63-2.709,4.5,4.5,0,0,1,1.746-1.8,5.052,5.052,0,0,1,2.556-.639,4.914,4.914,0,0,1,3.069.927,4.509,4.509,0,0,1,1.629,2.6h-2.718a1.988,1.988,0,0,0-.729-1.017,2.116,2.116,0,0,0-1.269-.369,2.078,2.078,0,0,0-1.71.783,3.466,3.466,0,0,0-.63,2.223,3.434,3.434,0,0,0,.63,2.2,2.078,2.078,0,0,0,1.71.783,1.911,1.911,0,0,0,2-1.368h2.718a4.6,4.6,0,0,1-1.638,2.574,4.827,4.827,0,0,1-3.06.954,5.052,5.052,0,0,1-2.556-.639,4.5,4.5,0,0,1-1.746-1.8A5.593,5.593,0,0,1,121.914-4.986ZM137.826.162a5.252,5.252,0,0,1-2.592-.639,4.6,4.6,0,0,1-1.809-1.809,5.42,5.42,0,0,1-.657-2.7,5.306,5.306,0,0,1,.675-2.7A4.691,4.691,0,0,1,135.288-9.5a5.355,5.355,0,0,1,2.61-.639,5.355,5.355,0,0,1,2.61.639,4.691,4.691,0,0,1,1.845,1.809,5.306,5.306,0,0,1,.675,2.7,5.2,5.2,0,0,1-.693,2.7,4.8,4.8,0,0,1-1.872,1.809A5.444,5.444,0,0,1,137.826.162Zm0-2.2a2.621,2.621,0,0,0,1.287-.333,2.42,2.42,0,0,0,.963-1,3.366,3.366,0,0,0,.36-1.62,3,3,0,0,0-.747-2.187,2.456,2.456,0,0,0-1.827-.765,2.4,2.4,0,0,0-1.809.765,3.047,3.047,0,0,0-.729,2.187,3.1,3.1,0,0,0,.711,2.187A2.341,2.341,0,0,0,137.826-2.034ZM153.738-7.9h-1.746V0h-2.556V-7.9H148.3v-2.07h1.134v-.5a3.306,3.306,0,0,1,1.044-2.7,4.664,4.664,0,0,1,3.15-.81v2.124a1.87,1.87,0,0,0-1.278.306,1.532,1.532,0,0,0-.36,1.17v.414h1.746Zm4.158-.522a3.543,3.543,0,0,1,1.269-1.242,3.529,3.529,0,0,1,1.791-.45V-7.47h-.666a2.553,2.553,0,0,0-1.791.558,2.572,2.572,0,0,0-.6,1.944V0h-2.52V-9.972h2.52Zm9.18,8.586a5.252,5.252,0,0,1-2.592-.639,4.6,4.6,0,0,1-1.809-1.809,5.42,5.42,0,0,1-.657-2.7,5.306,5.306,0,0,1,.675-2.7A4.691,4.691,0,0,1,164.538-9.5a5.355,5.355,0,0,1,2.61-.639,5.355,5.355,0,0,1,2.61.639A4.691,4.691,0,0,1,171.6-7.686a5.306,5.306,0,0,1,.675,2.7,5.2,5.2,0,0,1-.693,2.7,4.8,4.8,0,0,1-1.872,1.809A5.444,5.444,0,0,1,167.076.162Zm0-2.2a2.621,2.621,0,0,0,1.287-.333,2.42,2.42,0,0,0,.963-1,3.366,3.366,0,0,0,.36-1.62,3,3,0,0,0-.747-2.187,2.456,2.456,0,0,0-1.827-.765,2.4,2.4,0,0,0-1.809.765,3.047,3.047,0,0,0-.729,2.187,3.1,3.1,0,0,0,.711,2.187A2.341,2.341,0,0,0,167.076-2.034Zm19.44-8.082a4,4,0,0,1,2.961,1.125A4.246,4.246,0,0,1,190.6-5.85V0h-2.52V-5.508a2.491,2.491,0,0,0-.594-1.791,2.136,2.136,0,0,0-1.62-.621,2.166,2.166,0,0,0-1.629.621,2.468,2.468,0,0,0-.6,1.791V0h-2.52V-5.508a2.491,2.491,0,0,0-.594-1.791,2.136,2.136,0,0,0-1.62-.621,2.189,2.189,0,0,0-1.647.621,2.468,2.468,0,0,0-.6,1.791V0h-2.52V-9.972h2.52v1.206a3.354,3.354,0,0,1,1.251-.99,3.9,3.9,0,0,1,1.683-.36,4.329,4.329,0,0,1,2.088.5A3.469,3.469,0,0,1,183.1-8.208a3.61,3.61,0,0,1,1.413-1.386A4.023,4.023,0,0,1,186.516-10.116Zm16.29,0a3.844,3.844,0,0,1,2.88,1.125,4.307,4.307,0,0,1,1.1,3.141V0h-2.52V-5.508a2.586,2.586,0,0,0-.594-1.827,2.1,2.1,0,0,0-1.62-.639,2.156,2.156,0,0,0-1.647.639,2.561,2.561,0,0,0-.6,1.827V0h-2.52V-9.972h2.52V-8.73a3.482,3.482,0,0,1,1.287-1.017A3.981,3.981,0,0,1,202.806-10.116ZM211.7-8.532a3.827,3.827,0,0,1,1.341-1.143,4.064,4.064,0,0,1,1.953-.459,4.361,4.361,0,0,1,2.313.63,4.432,4.432,0,0,1,1.638,1.791,5.757,5.757,0,0,1,.6,2.691,5.867,5.867,0,0,1-.6,2.709A4.535,4.535,0,0,1,217.3-.486a4.27,4.27,0,0,1-2.313.648,4.024,4.024,0,0,1-1.935-.45A4.151,4.151,0,0,1,211.7-1.422V4.752h-2.52V-9.972h2.52Zm5.274,3.51a3.13,3.13,0,0,0-.369-1.557,2.555,2.555,0,0,0-.972-1,2.6,2.6,0,0,0-1.305-.342,2.517,2.517,0,0,0-1.287.351,2.605,2.605,0,0,0-.972,1.017,3.181,3.181,0,0,0-.369,1.566,3.181,3.181,0,0,0,.369,1.566,2.605,2.605,0,0,0,.972,1.017,2.517,2.517,0,0,0,1.287.351,2.5,2.5,0,0,0,1.305-.36,2.672,2.672,0,0,0,.972-1.026A3.22,3.22,0,0,0,216.972-5.022Zm16.794-5.094a4,4,0,0,1,2.961,1.125,4.246,4.246,0,0,1,1.125,3.141V0h-2.52V-5.508a2.491,2.491,0,0,0-.594-1.791,2.136,2.136,0,0,0-1.62-.621,2.166,2.166,0,0,0-1.629.621,2.468,2.468,0,0,0-.6,1.791V0h-2.52V-5.508a2.491,2.491,0,0,0-.594-1.791,2.136,2.136,0,0,0-1.62-.621A2.189,2.189,0,0,0,224.5-7.3a2.468,2.468,0,0,0-.6,1.791V0h-2.52V-9.972h2.52v1.206a3.354,3.354,0,0,1,1.251-.99,3.9,3.9,0,0,1,1.683-.36,4.329,4.329,0,0,1,2.088.5,3.469,3.469,0,0,1,1.422,1.413,3.61,3.61,0,0,1,1.413-1.386A4.023,4.023,0,0,1,233.766-10.116ZM248.958.162a5.252,5.252,0,0,1-2.592-.639,4.6,4.6,0,0,1-1.809-1.809,5.42,5.42,0,0,1-.657-2.7,5.306,5.306,0,0,1,.675-2.7A4.691,4.691,0,0,1,246.42-9.5a5.355,5.355,0,0,1,2.61-.639,5.355,5.355,0,0,1,2.61.639,4.691,4.691,0,0,1,1.845,1.809,5.306,5.306,0,0,1,.675,2.7,5.2,5.2,0,0,1-.693,2.7,4.8,4.8,0,0,1-1.872,1.809A5.444,5.444,0,0,1,248.958.162Zm0-2.2a2.621,2.621,0,0,0,1.287-.333,2.42,2.42,0,0,0,.963-1,3.366,3.366,0,0,0,.36-1.62,3,3,0,0,0-.747-2.187,2.456,2.456,0,0,0-1.827-.765,2.4,2.4,0,0,0-1.809.765,3.047,3.047,0,0,0-.729,2.187,3.1,3.1,0,0,0,.711,2.187A2.341,2.341,0,0,0,248.958-2.034Zm9.576-6.39A3.543,3.543,0,0,1,259.8-9.666a3.529,3.529,0,0,1,1.791-.45V-7.47h-.666a2.553,2.553,0,0,0-1.791.558,2.572,2.572,0,0,0-.6,1.944V0h-2.52V-9.972h2.52Zm8.388,3.438a5.593,5.593,0,0,1,.63-2.709A4.5,4.5,0,0,1,269.3-9.5a5.052,5.052,0,0,1,2.556-.639,4.914,4.914,0,0,1,3.069.927,4.509,4.509,0,0,1,1.629,2.6h-2.718a1.988,1.988,0,0,0-.729-1.017,2.117,2.117,0,0,0-1.269-.369,2.078,2.078,0,0,0-1.71.783,3.466,3.466,0,0,0-.63,2.223,3.434,3.434,0,0,0,.63,2.2,2.078,2.078,0,0,0,1.71.783,1.911,1.911,0,0,0,2-1.368h2.718a4.6,4.6,0,0,1-1.638,2.574,4.827,4.827,0,0,1-3.06.954A5.052,5.052,0,0,1,269.3-.477a4.5,4.5,0,0,1-1.746-1.8A5.593,5.593,0,0,1,266.922-4.986Zm10.836-.036a5.771,5.771,0,0,1,.6-2.682,4.4,4.4,0,0,1,1.647-1.8,4.407,4.407,0,0,1,2.322-.63,4.235,4.235,0,0,1,1.854.423,3.707,3.707,0,0,1,1.4,1.125V-13.32h2.556V0h-2.556V-1.476a3.415,3.415,0,0,1-1.314,1.188,4.116,4.116,0,0,1-1.962.45,4.283,4.283,0,0,1-2.3-.648,4.512,4.512,0,0,1-1.647-1.827A5.867,5.867,0,0,1,277.758-5.022Zm7.848.036a3.232,3.232,0,0,0-.36-1.575,2.538,2.538,0,0,0-.972-1.008,2.6,2.6,0,0,0-1.314-.351,2.552,2.552,0,0,0-1.3.342,2.575,2.575,0,0,0-.963,1,3.129,3.129,0,0,0-.369,1.557,3.233,3.233,0,0,0,.369,1.575,2.657,2.657,0,0,0,.972,1.035,2.469,2.469,0,0,0,1.287.36,2.6,2.6,0,0,0,1.314-.351,2.538,2.538,0,0,0,.972-1.008A3.232,3.232,0,0,0,285.606-4.986Zm10.53-5.13a3.844,3.844,0,0,1,2.88,1.125,4.307,4.307,0,0,1,1.1,3.141V0h-2.52V-5.508A2.586,2.586,0,0,0,297-7.335a2.1,2.1,0,0,0-1.62-.639,2.156,2.156,0,0,0-1.647.639,2.561,2.561,0,0,0-.6,1.827V0h-2.52V-9.972h2.52V-8.73a3.481,3.481,0,0,1,1.287-1.017A3.981,3.981,0,0,1,296.136-10.116Z" transform="translate(131 522)"/><text transform="translate(79 533)" fill="#2befb3" font-size="50" font-family="Poppins-SemiBold, Poppins" font-weight="600"><tspan x="0" y="0">1 </tspan></text></g></svg>