<svg xmlns="http://www.w3.org/2000/svg" width="200" height="39.471" viewBox="0 0 200 39.471">
  <g id="atomico_router" data-name="atomico/router" transform="translate(-793.031 -158)">
    <rect id="Rect치ngulo_11" data-name="Rect치ngulo 11" width="9.957" height="39.828" rx="4.979" transform="translate(812.945 158) rotate(30)" fill="#fa7"/>
    <rect id="Rect치ngulo_12" data-name="Rect치ngulo 12" width="9.957" height="39.828" rx="4.979" transform="translate(836.345 158) rotate(30)" fill="#fa7"/>
    <path id="Trazado_1" data-name="Trazado 1" d="M20.619-39.675l-3.085.3q-3.641.354-5.234,2.225a7.079,7.079,0,0,0-1.593,4.753v13.7H5.6V-43.367h4.956v4.3q1.972-4.349,8.04-4.8l1.669-.1Zm13.7,21.339a12.714,12.714,0,0,1-6.4-1.568,10.577,10.577,0,0,1-4.248-4.475,14.592,14.592,0,0,1-1.492-6.751,14.709,14.709,0,0,1,1.492-6.8,10.577,10.577,0,0,1,4.248-4.475,12.714,12.714,0,0,1,6.4-1.568,12.714,12.714,0,0,1,6.4,1.568,10.578,10.578,0,0,1,4.248,4.475,14.709,14.709,0,0,1,1.492,6.8,14.592,14.592,0,0,1-1.492,6.751A10.577,10.577,0,0,1,40.719-19.9a12.714,12.714,0,0,1-6.4,1.568Zm0-4.045a6.271,6.271,0,0,0,5.183-2.225q1.8-2.225,1.8-6.523,0-4.248-1.82-6.5a6.258,6.258,0,0,0-5.158-2.25,6.258,6.258,0,0,0-5.158,2.25q-1.82,2.25-1.82,6.5,0,4.3,1.8,6.523A6.271,6.271,0,0,0,34.322-22.381ZM73.765-43.367V-18.69H68.809v-3.995A7.919,7.919,0,0,1,65.6-19.448a9.43,9.43,0,0,1-4.576,1.112q-9,0-9-9.911v-15.12h5.107V-28.3a6.656,6.656,0,0,0,1.214,4.4,4.663,4.663,0,0,0,3.742,1.416A6.229,6.229,0,0,0,66.862-24.4a7.181,7.181,0,0,0,1.8-5.107V-43.367ZM92.576-22.28a16.825,16.825,0,0,0,2.276-.152L94.6-18.538a16.625,16.625,0,0,1-2.63.2q-4.8,0-7.155-2.351t-2.351-6.8V-39.422h-4.8v-3.944h4.8V-50.8H87.57v7.433h6.776v3.944H87.57v11.732Q87.57-22.28,92.576-22.28Zm27.306-7.889H102.437q.556,7.838,7.787,7.838a11.917,11.917,0,0,0,7.686-2.781l1.568,3.59A12.827,12.827,0,0,1,115.23-19.2a15.92,15.92,0,0,1-5.158.86q-5.916,0-9.33-3.388t-3.413-9.355A14.632,14.632,0,0,1,98.821-37.8a10.967,10.967,0,0,1,4.2-4.551,11.736,11.736,0,0,1,6.144-1.618,9.946,9.946,0,0,1,7.863,3.236q2.857,3.236,2.857,8.95ZM109.263-40.231a6.131,6.131,0,0,0-4.677,1.846,8.772,8.772,0,0,0-2.1,5.284h13a8.452,8.452,0,0,0-1.745-5.284,5.593,5.593,0,0,0-4.475-1.846Zm31.251.556-3.085.3q-3.641.354-5.234,2.225a7.079,7.079,0,0,0-1.593,4.753v13.7H125.5V-43.367h4.956v4.3q1.972-4.349,8.04-4.8l1.669-.1Z" transform="translate(852.517 208.8)"/>
  </g>
</svg>
