<svg xmlns="http://www.w3.org/2000/svg" width="413" height="91" viewBox="0 0 413 91"><g transform="translate(-58 -471)"><rect width="413" height="91" rx="10" transform="translate(58 471)" fill="#fff"/><path d="M.63-6.3a6.581,6.581,0,0,1,.837-3.321,5.977,5.977,0,0,1,2.286-2.286A6.486,6.486,0,0,1,7-12.726a6.391,6.391,0,0,1,3.69,1.08,5.647,5.647,0,0,1,2.214,2.988h-2.9a3,3,0,0,0-1.215-1.35,3.566,3.566,0,0,0-1.809-.45,3.722,3.722,0,0,0-1.953.513A3.5,3.5,0,0,0,3.7-8.5a4.777,4.777,0,0,0-.477,2.2A4.791,4.791,0,0,0,3.7-4.113,3.489,3.489,0,0,0,5.031-2.655a3.722,3.722,0,0,0,1.953.513A3.51,3.51,0,0,0,8.793-2.6,3.058,3.058,0,0,0,10.008-3.96h2.9a5.616,5.616,0,0,1-2.2,3A6.418,6.418,0,0,1,7,.108,6.486,6.486,0,0,1,3.753-.711,6,6,0,0,1,1.467-2.988,6.532,6.532,0,0,1,.63-6.3ZM17.586-8.424a3.543,3.543,0,0,1,1.269-1.242,3.529,3.529,0,0,1,1.791-.45V-7.47H19.98a2.553,2.553,0,0,0-1.791.558,2.572,2.572,0,0,0-.6,1.944V0h-2.52V-9.972h2.52ZM31.608-5.2a5.948,5.948,0,0,1-.072.972h-7.29A2.479,2.479,0,0,0,25-2.538a2.331,2.331,0,0,0,1.638.612,2.058,2.058,0,0,0,2-1.206h2.718A4.542,4.542,0,0,1,29.7-.765a4.835,4.835,0,0,1-3.006.927,5.2,5.2,0,0,1-2.583-.639,4.5,4.5,0,0,1-1.782-1.809,5.543,5.543,0,0,1-.639-2.7A5.646,5.646,0,0,1,22.32-7.7a4.4,4.4,0,0,1,1.764-1.8,5.285,5.285,0,0,1,2.61-.63,5.243,5.243,0,0,1,2.547.612,4.307,4.307,0,0,1,1.746,1.737A5.256,5.256,0,0,1,31.608-5.2ZM29-5.922a2,2,0,0,0-.7-1.557,2.487,2.487,0,0,0-1.674-.585,2.287,2.287,0,0,0-1.575.567,2.493,2.493,0,0,0-.783,1.575Zm3.8.9A5.772,5.772,0,0,1,33.4-7.7a4.42,4.42,0,0,1,1.638-1.8,4.361,4.361,0,0,1,2.313-.63,4.063,4.063,0,0,1,1.953.45A3.963,3.963,0,0,1,40.644-8.55V-9.972h2.538V0H40.644V-1.458A3.748,3.748,0,0,1,39.3-.3a4.1,4.1,0,0,1-1.971.459,4.238,4.238,0,0,1-2.3-.648A4.535,4.535,0,0,1,33.4-2.313,5.867,5.867,0,0,1,32.8-5.022Zm7.848.036a3.232,3.232,0,0,0-.36-1.575,2.538,2.538,0,0,0-.972-1.008A2.6,2.6,0,0,0,38-7.92a2.552,2.552,0,0,0-1.3.342,2.575,2.575,0,0,0-.963,1,3.129,3.129,0,0,0-.369,1.557,3.233,3.233,0,0,0,.369,1.575,2.657,2.657,0,0,0,.972,1.035A2.469,2.469,0,0,0,38-2.052,2.6,2.6,0,0,0,39.312-2.4a2.538,2.538,0,0,0,.972-1.008A3.232,3.232,0,0,0,40.644-4.986ZM48.582-7.9v4.824a.953.953,0,0,0,.243.729,1.194,1.194,0,0,0,.819.225h1.17V0H49.23q-3.186,0-3.186-3.1V-7.9H44.856v-2.07h1.188v-2.466h2.538v2.466h2.232V-7.9ZM61.9-5.2a5.947,5.947,0,0,1-.072.972H54.54A2.479,2.479,0,0,0,55.3-2.538a2.331,2.331,0,0,0,1.638.612,2.058,2.058,0,0,0,2-1.206H61.65A4.542,4.542,0,0,1,59.994-.765a4.835,4.835,0,0,1-3.006.927A5.2,5.2,0,0,1,54.4-.477a4.5,4.5,0,0,1-1.782-1.809,5.543,5.543,0,0,1-.639-2.7,5.646,5.646,0,0,1,.63-2.718,4.4,4.4,0,0,1,1.764-1.8,5.285,5.285,0,0,1,2.61-.63,5.243,5.243,0,0,1,2.547.612,4.307,4.307,0,0,1,1.746,1.737A5.256,5.256,0,0,1,61.9-5.2Zm-2.61-.72a2,2,0,0,0-.7-1.557,2.487,2.487,0,0,0-1.674-.585,2.287,2.287,0,0,0-1.575.567,2.493,2.493,0,0,0-.783,1.575Zm8.082.9a5.772,5.772,0,0,1,.6-2.682,4.42,4.42,0,0,1,1.638-1.8,4.361,4.361,0,0,1,2.313-.63,4.063,4.063,0,0,1,1.953.45A3.963,3.963,0,0,1,75.222-8.55V-9.972H77.76V0H75.222V-1.458A3.748,3.748,0,0,1,73.881-.3,4.1,4.1,0,0,1,71.91.162a4.238,4.238,0,0,1-2.295-.648,4.535,4.535,0,0,1-1.638-1.827A5.867,5.867,0,0,1,67.374-5.022Zm7.848.036a3.232,3.232,0,0,0-.36-1.575,2.538,2.538,0,0,0-.972-1.008,2.6,2.6,0,0,0-1.314-.351,2.552,2.552,0,0,0-1.3.342,2.575,2.575,0,0,0-.963,1,3.129,3.129,0,0,0-.369,1.557,3.233,3.233,0,0,0,.369,1.575,2.657,2.657,0,0,0,.972,1.035,2.469,2.469,0,0,0,1.287.36A2.6,2.6,0,0,0,73.89-2.4a2.538,2.538,0,0,0,.972-1.008A3.232,3.232,0,0,0,75.222-4.986ZM89.082-7.9H87.336V0H84.78V-7.9H83.646v-2.07H84.78v-.5a3.306,3.306,0,0,1,1.044-2.7,4.664,4.664,0,0,1,3.15-.81v2.124a1.87,1.87,0,0,0-1.278.306,1.532,1.532,0,0,0-.36,1.17v.414h1.746Zm11.052-2.07V0H97.6V-1.26A3.327,3.327,0,0,1,96.327-.243a3.939,3.939,0,0,1-1.7.369,4.225,4.225,0,0,1-2.07-.5,3.489,3.489,0,0,1-1.413-1.458,4.818,4.818,0,0,1-.513-2.3v-5.85h2.52v5.49a2.586,2.586,0,0,0,.594,1.827,2.1,2.1,0,0,0,1.62.639A2.126,2.126,0,0,0,97-2.655,2.586,2.586,0,0,0,97.6-4.482v-5.49Zm8.01-.144a3.844,3.844,0,0,1,2.88,1.125,4.307,4.307,0,0,1,1.1,3.141V0H109.6V-5.508a2.586,2.586,0,0,0-.594-1.827,2.1,2.1,0,0,0-1.62-.639,2.156,2.156,0,0,0-1.647.639,2.561,2.561,0,0,0-.6,1.827V0h-2.52V-9.972h2.52V-8.73a3.481,3.481,0,0,1,1.287-1.017A3.981,3.981,0,0,1,108.144-10.116Zm5.724,5.13A5.593,5.593,0,0,1,114.5-7.7a4.5,4.5,0,0,1,1.746-1.8,5.052,5.052,0,0,1,2.556-.639,4.914,4.914,0,0,1,3.069.927,4.509,4.509,0,0,1,1.629,2.6H120.78a1.988,1.988,0,0,0-.729-1.017,2.116,2.116,0,0,0-1.269-.369,2.078,2.078,0,0,0-1.71.783,3.466,3.466,0,0,0-.63,2.223,3.434,3.434,0,0,0,.63,2.2,2.078,2.078,0,0,0,1.71.783,1.911,1.911,0,0,0,2-1.368H123.5A4.6,4.6,0,0,1,121.86-.792a4.827,4.827,0,0,1-3.06.954,5.052,5.052,0,0,1-2.556-.639,4.5,4.5,0,0,1-1.746-1.8A5.593,5.593,0,0,1,113.868-4.986ZM128.286-7.9v4.824a.953.953,0,0,0,.243.729,1.194,1.194,0,0,0,.819.225h1.17V0h-1.584q-3.186,0-3.186-3.1V-7.9H124.56v-2.07h1.188v-2.466h2.538v2.466h2.232V-7.9Zm5.328-3.258a1.536,1.536,0,0,1-1.107-.423,1.4,1.4,0,0,1-.441-1.053,1.4,1.4,0,0,1,.441-1.053,1.536,1.536,0,0,1,1.107-.423,1.535,1.535,0,0,1,1.107.423,1.4,1.4,0,0,1,.441,1.053,1.4,1.4,0,0,1-.441,1.053A1.535,1.535,0,0,1,133.614-11.16Zm1.242,1.188V0h-2.52V-9.972ZM141.768.162a5.252,5.252,0,0,1-2.592-.639,4.6,4.6,0,0,1-1.809-1.809,5.42,5.42,0,0,1-.657-2.7,5.306,5.306,0,0,1,.675-2.7A4.691,4.691,0,0,1,139.23-9.5a5.355,5.355,0,0,1,2.61-.639,5.355,5.355,0,0,1,2.61.639,4.691,4.691,0,0,1,1.845,1.809,5.306,5.306,0,0,1,.675,2.7,5.2,5.2,0,0,1-.693,2.7A4.8,4.8,0,0,1,144.4-.477,5.444,5.444,0,0,1,141.768.162Zm0-2.2a2.621,2.621,0,0,0,1.287-.333,2.42,2.42,0,0,0,.963-1,3.366,3.366,0,0,0,.36-1.62,3,3,0,0,0-.747-2.187,2.456,2.456,0,0,0-1.827-.765,2.4,2.4,0,0,0-1.809.765,3.047,3.047,0,0,0-.729,2.187,3.1,3.1,0,0,0,.711,2.187A2.341,2.341,0,0,0,141.768-2.034Zm12.582-8.082a3.844,3.844,0,0,1,2.88,1.125,4.307,4.307,0,0,1,1.1,3.141V0h-2.52V-5.508a2.586,2.586,0,0,0-.594-1.827,2.1,2.1,0,0,0-1.62-.639,2.156,2.156,0,0,0-1.647.639,2.561,2.561,0,0,0-.6,1.827V0h-2.52V-9.972h2.52V-8.73a3.482,3.482,0,0,1,1.287-1.017A3.981,3.981,0,0,1,154.35-10.116ZM167.94-7.9v4.824a.953.953,0,0,0,.243.729,1.194,1.194,0,0,0,.819.225h1.17V0h-1.584Q165.4,0,165.4-3.1V-7.9h-1.188v-2.07H165.4v-2.466h2.538v2.466h2.232V-7.9ZM176.418.162a5.252,5.252,0,0,1-2.592-.639,4.6,4.6,0,0,1-1.809-1.809,5.42,5.42,0,0,1-.657-2.7,5.306,5.306,0,0,1,.675-2.7A4.691,4.691,0,0,1,173.88-9.5a5.355,5.355,0,0,1,2.61-.639,5.355,5.355,0,0,1,2.61.639,4.691,4.691,0,0,1,1.845,1.809,5.306,5.306,0,0,1,.675,2.7,5.2,5.2,0,0,1-.693,2.7,4.8,4.8,0,0,1-1.872,1.809A5.444,5.444,0,0,1,176.418.162Zm0-2.2a2.621,2.621,0,0,0,1.287-.333,2.42,2.42,0,0,0,.963-1,3.366,3.366,0,0,0,.36-1.62,3,3,0,0,0-.747-2.187,2.456,2.456,0,0,0-1.827-.765,2.4,2.4,0,0,0-1.809.765,3.047,3.047,0,0,0-.729,2.187,3.1,3.1,0,0,0,.711,2.187A2.341,2.341,0,0,0,176.418-2.034ZM187.11-5.022a5.771,5.771,0,0,1,.6-2.682,4.4,4.4,0,0,1,1.647-1.8,4.407,4.407,0,0,1,2.322-.63,4.235,4.235,0,0,1,1.854.423,3.707,3.707,0,0,1,1.4,1.125V-13.32H197.5V0H194.94V-1.476a3.415,3.415,0,0,1-1.314,1.188,4.116,4.116,0,0,1-1.962.45,4.283,4.283,0,0,1-2.3-.648,4.512,4.512,0,0,1-1.647-1.827A5.867,5.867,0,0,1,187.11-5.022Zm7.848.036a3.232,3.232,0,0,0-.36-1.575,2.538,2.538,0,0,0-.972-1.008,2.6,2.6,0,0,0-1.314-.351,2.552,2.552,0,0,0-1.3.342,2.575,2.575,0,0,0-.963,1,3.129,3.129,0,0,0-.369,1.557,3.233,3.233,0,0,0,.369,1.575,2.657,2.657,0,0,0,.972,1.035,2.469,2.469,0,0,0,1.287.36,2.6,2.6,0,0,0,1.314-.351,2.538,2.538,0,0,0,.972-1.008A3.232,3.232,0,0,0,194.958-4.986ZM209.232-5.2a5.95,5.95,0,0,1-.072.972h-7.29a2.479,2.479,0,0,0,.756,1.692,2.331,2.331,0,0,0,1.638.612,2.058,2.058,0,0,0,2-1.206h2.718a4.542,4.542,0,0,1-1.656,2.367,4.835,4.835,0,0,1-3.006.927,5.2,5.2,0,0,1-2.583-.639,4.5,4.5,0,0,1-1.782-1.809,5.543,5.543,0,0,1-.639-2.7,5.646,5.646,0,0,1,.63-2.718,4.4,4.4,0,0,1,1.764-1.8,5.284,5.284,0,0,1,2.61-.63,5.243,5.243,0,0,1,2.547.612,4.307,4.307,0,0,1,1.746,1.737A5.257,5.257,0,0,1,209.232-5.2Zm-2.61-.72a2,2,0,0,0-.7-1.557,2.487,2.487,0,0,0-1.674-.585,2.287,2.287,0,0,0-1.575.567,2.493,2.493,0,0,0-.783,1.575Zm3.8.936a5.593,5.593,0,0,1,.63-2.709A4.5,4.5,0,0,1,212.8-9.5a5.052,5.052,0,0,1,2.556-.639,4.914,4.914,0,0,1,3.069.927,4.509,4.509,0,0,1,1.629,2.6h-2.718a1.988,1.988,0,0,0-.729-1.017,2.116,2.116,0,0,0-1.269-.369,2.078,2.078,0,0,0-1.71.783,3.466,3.466,0,0,0-.63,2.223,3.434,3.434,0,0,0,.63,2.2,2.078,2.078,0,0,0,1.71.783,1.911,1.911,0,0,0,2-1.368h2.718a4.6,4.6,0,0,1-1.638,2.574,4.827,4.827,0,0,1-3.06.954A5.052,5.052,0,0,1,212.8-.477a4.5,4.5,0,0,1-1.746-1.8A5.593,5.593,0,0,1,210.42-4.986Zm14-8.334V0H221.9V-13.32Zm1.836,8.3a5.771,5.771,0,0,1,.6-2.682A4.42,4.42,0,0,1,228.5-9.5a4.361,4.361,0,0,1,2.313-.63,4.063,4.063,0,0,1,1.953.45,3.963,3.963,0,0,1,1.341,1.134V-9.972h2.538V0h-2.538V-1.458A3.748,3.748,0,0,1,232.767-.3,4.1,4.1,0,0,1,230.8.162,4.238,4.238,0,0,1,228.5-.486a4.535,4.535,0,0,1-1.638-1.827A5.867,5.867,0,0,1,226.26-5.022Zm7.848.036a3.232,3.232,0,0,0-.36-1.575,2.538,2.538,0,0,0-.972-1.008,2.6,2.6,0,0,0-1.314-.351,2.552,2.552,0,0,0-1.3.342,2.575,2.575,0,0,0-.963,1,3.129,3.129,0,0,0-.369,1.557,3.233,3.233,0,0,0,.369,1.575,2.657,2.657,0,0,0,.972,1.035,2.469,2.469,0,0,0,1.287.36,2.6,2.6,0,0,0,1.314-.351,2.538,2.538,0,0,0,.972-1.008A3.232,3.232,0,0,0,234.108-4.986Zm7.524-3.438A3.543,3.543,0,0,1,242.9-9.666a3.529,3.529,0,0,1,1.791-.45V-7.47h-.666a2.553,2.553,0,0,0-1.791.558,2.572,2.572,0,0,0-.6,1.944V0h-2.52V-9.972h2.52ZM255.654-5.2a5.95,5.95,0,0,1-.072.972h-7.29a2.479,2.479,0,0,0,.756,1.692,2.331,2.331,0,0,0,1.638.612,2.058,2.058,0,0,0,2-1.206H255.4a4.542,4.542,0,0,1-1.656,2.367,4.835,4.835,0,0,1-3.006.927,5.2,5.2,0,0,1-2.583-.639,4.5,4.5,0,0,1-1.782-1.809,5.543,5.543,0,0,1-.639-2.7,5.646,5.646,0,0,1,.63-2.718,4.4,4.4,0,0,1,1.764-1.8,5.284,5.284,0,0,1,2.61-.63,5.243,5.243,0,0,1,2.547.612,4.307,4.307,0,0,1,1.746,1.737A5.257,5.257,0,0,1,255.654-5.2Zm-2.61-.72a2,2,0,0,0-.7-1.557,2.487,2.487,0,0,0-1.674-.585,2.287,2.287,0,0,0-1.575.567,2.493,2.493,0,0,0-.783,1.575ZM3.762,12.68V26H1.242V12.68Zm6.912,13.482a5.252,5.252,0,0,1-2.592-.639,4.6,4.6,0,0,1-1.809-1.809,5.421,5.421,0,0,1-.657-2.7,5.305,5.305,0,0,1,.675-2.7A4.691,4.691,0,0,1,8.136,16.5a5.355,5.355,0,0,1,2.61-.639,5.355,5.355,0,0,1,2.61.639A4.691,4.691,0,0,1,15.2,18.314a5.305,5.305,0,0,1,.675,2.7,5.2,5.2,0,0,1-.693,2.7,4.8,4.8,0,0,1-1.872,1.809A5.444,5.444,0,0,1,10.674,26.162Zm0-2.2a2.621,2.621,0,0,0,1.287-.333,2.42,2.42,0,0,0,.963-1,3.367,3.367,0,0,0,.36-1.62,3,3,0,0,0-.747-2.187,2.456,2.456,0,0,0-1.827-.765,2.4,2.4,0,0,0-1.809.765,3.047,3.047,0,0,0-.729,2.187A3.1,3.1,0,0,0,8.883,23.2,2.341,2.341,0,0,0,10.674,23.966Zm10.962-8.1a4.185,4.185,0,0,1,1.962.441A3.612,3.612,0,0,1,24.93,17.45V16.028h2.538V26.072a5.35,5.35,0,0,1-.558,2.475,4.143,4.143,0,0,1-1.674,1.728,5.351,5.351,0,0,1-2.7.639,5.768,5.768,0,0,1-3.483-.99,3.67,3.67,0,0,1-1.539-2.7h2.5a1.863,1.863,0,0,0,.855,1.089,2.979,2.979,0,0,0,1.593.405,2.465,2.465,0,0,0,1.782-.657,2.639,2.639,0,0,0,.684-1.989V24.524a3.828,3.828,0,0,1-1.341,1.17,4,4,0,0,1-1.953.468,4.283,4.283,0,0,1-2.3-.648,4.512,4.512,0,0,1-1.647-1.827,5.867,5.867,0,0,1-.6-2.709,5.772,5.772,0,0,1,.6-2.682,4.42,4.42,0,0,1,1.638-1.8A4.361,4.361,0,0,1,21.636,15.866Zm3.294,5.148a3.232,3.232,0,0,0-.36-1.575,2.538,2.538,0,0,0-.972-1.008,2.6,2.6,0,0,0-1.314-.351,2.531,2.531,0,0,0-2.259,1.341,3.129,3.129,0,0,0-.369,1.557,3.233,3.233,0,0,0,.369,1.575A2.657,2.657,0,0,0,21,23.588a2.469,2.469,0,0,0,1.287.36A2.6,2.6,0,0,0,23.6,23.6a2.538,2.538,0,0,0,.972-1.008A3.232,3.232,0,0,0,24.93,21.014Zm6.282-6.174a1.535,1.535,0,0,1-1.107-.423,1.478,1.478,0,0,1,0-2.106,1.66,1.66,0,0,1,2.214,0,1.478,1.478,0,0,1,0,2.106A1.535,1.535,0,0,1,31.212,14.84Zm1.242,1.188V26h-2.52V16.028Zm1.836,4.986a5.593,5.593,0,0,1,.63-2.709,4.5,4.5,0,0,1,1.746-1.8,5.052,5.052,0,0,1,2.556-.639,4.914,4.914,0,0,1,3.069.927,4.509,4.509,0,0,1,1.629,2.6H41.2a1.988,1.988,0,0,0-.729-1.017,2.116,2.116,0,0,0-1.269-.369,2.078,2.078,0,0,0-1.71.783,3.466,3.466,0,0,0-.63,2.223,3.434,3.434,0,0,0,.63,2.2A2.078,2.078,0,0,0,39.2,24a1.911,1.911,0,0,0,2-1.368H43.92a4.6,4.6,0,0,1-1.638,2.574,4.827,4.827,0,0,1-3.06.954,5.052,5.052,0,0,1-2.556-.639,4.5,4.5,0,0,1-1.746-1.8A5.593,5.593,0,0,1,34.29,21.014Zm15.12-.036a5.772,5.772,0,0,1,.6-2.682,4.42,4.42,0,0,1,1.638-1.8,4.361,4.361,0,0,1,2.313-.63,4.063,4.063,0,0,1,1.953.45,3.963,3.963,0,0,1,1.341,1.134V16.028H59.8V26H57.258V24.542A3.748,3.748,0,0,1,55.917,25.7a4.1,4.1,0,0,1-1.971.459,4.238,4.238,0,0,1-2.3-.648,4.535,4.535,0,0,1-1.638-1.827A5.867,5.867,0,0,1,49.41,20.978Zm7.848.036a3.232,3.232,0,0,0-.36-1.575,2.538,2.538,0,0,0-.972-1.008,2.6,2.6,0,0,0-1.314-.351,2.531,2.531,0,0,0-2.259,1.341,3.129,3.129,0,0,0-.369,1.557,3.233,3.233,0,0,0,.369,1.575,2.657,2.657,0,0,0,.972,1.035,2.469,2.469,0,0,0,1.287.36,2.6,2.6,0,0,0,1.314-.351,2.538,2.538,0,0,0,.972-1.008A3.232,3.232,0,0,0,57.258,21.014Zm10.53-5.13a3.844,3.844,0,0,1,2.88,1.125,4.307,4.307,0,0,1,1.1,3.141V26h-2.52V20.492a2.586,2.586,0,0,0-.594-1.827,2.1,2.1,0,0,0-1.62-.639,2.156,2.156,0,0,0-1.647.639,2.561,2.561,0,0,0-.6,1.827V26h-2.52V16.028h2.52V17.27a3.481,3.481,0,0,1,1.287-1.017A3.981,3.981,0,0,1,67.788,15.884Zm5.724,5.094a5.772,5.772,0,0,1,.6-2.682,4.347,4.347,0,0,1,3.969-2.43,4.235,4.235,0,0,1,1.854.423,3.707,3.707,0,0,1,1.4,1.125V12.68H83.9V26H81.342V24.524a3.415,3.415,0,0,1-1.314,1.188,4.116,4.116,0,0,1-1.962.45,4.283,4.283,0,0,1-2.3-.648,4.512,4.512,0,0,1-1.647-1.827A5.867,5.867,0,0,1,73.512,20.978Zm7.848.036A3.232,3.232,0,0,0,81,19.439a2.538,2.538,0,0,0-.972-1.008,2.6,2.6,0,0,0-1.314-.351,2.531,2.531,0,0,0-2.259,1.341,3.129,3.129,0,0,0-.369,1.557,3.232,3.232,0,0,0,.369,1.575,2.657,2.657,0,0,0,.972,1.035,2.469,2.469,0,0,0,1.287.36,2.6,2.6,0,0,0,1.314-.351A2.538,2.538,0,0,0,81,22.589,3.232,3.232,0,0,0,81.36,21.014ZM93.582,18.1v4.824a.953.953,0,0,0,.243.729,1.194,1.194,0,0,0,.819.225h1.17V26H94.23q-3.186,0-3.186-3.1V18.1H89.856v-2.07h1.188V13.562h2.538v2.466h2.232V18.1Zm13.32,2.7a5.948,5.948,0,0,1-.072.972H99.54a2.479,2.479,0,0,0,.756,1.692,2.331,2.331,0,0,0,1.638.612,2.058,2.058,0,0,0,2-1.206h2.718a4.542,4.542,0,0,1-1.656,2.367,4.835,4.835,0,0,1-3.006.927,5.2,5.2,0,0,1-2.583-.639,4.5,4.5,0,0,1-1.782-1.809,5.543,5.543,0,0,1-.639-2.7,5.646,5.646,0,0,1,.63-2.718,4.4,4.4,0,0,1,1.764-1.8,5.664,5.664,0,0,1,5.157-.018,4.307,4.307,0,0,1,1.746,1.737A5.256,5.256,0,0,1,106.9,20.8Zm-2.61-.72a2,2,0,0,0-.7-1.557,2.487,2.487,0,0,0-1.674-.585,2.287,2.287,0,0,0-1.575.567,2.493,2.493,0,0,0-.783,1.575Zm16.83-4.194a4,4,0,0,1,2.961,1.125,4.246,4.246,0,0,1,1.125,3.141V26h-2.52V20.492a2.491,2.491,0,0,0-.594-1.791,2.136,2.136,0,0,0-1.62-.621,2.166,2.166,0,0,0-1.629.621,2.468,2.468,0,0,0-.6,1.791V26h-2.52V20.492a2.491,2.491,0,0,0-.594-1.791,2.136,2.136,0,0,0-1.62-.621,2.189,2.189,0,0,0-1.647.621,2.468,2.468,0,0,0-.6,1.791V26h-2.52V16.028h2.52v1.206a3.354,3.354,0,0,1,1.251-.99,3.9,3.9,0,0,1,1.683-.36,4.329,4.329,0,0,1,2.088.5,3.469,3.469,0,0,1,1.422,1.413,3.61,3.61,0,0,1,1.413-1.386A4.023,4.023,0,0,1,121.122,15.884Zm9,1.584a3.827,3.827,0,0,1,1.341-1.143,4.064,4.064,0,0,1,1.953-.459,4.361,4.361,0,0,1,2.313.63,4.432,4.432,0,0,1,1.638,1.791,5.757,5.757,0,0,1,.6,2.691,5.867,5.867,0,0,1-.6,2.709,4.535,4.535,0,0,1-1.638,1.827,4.27,4.27,0,0,1-2.313.648,4.024,4.024,0,0,1-1.935-.45,4.151,4.151,0,0,1-1.359-1.134v6.174H127.6V16.028h2.52Zm5.274,3.51a3.13,3.13,0,0,0-.369-1.557,2.555,2.555,0,0,0-.972-1,2.6,2.6,0,0,0-1.305-.342,2.517,2.517,0,0,0-1.287.351,2.605,2.605,0,0,0-.972,1.017,3.507,3.507,0,0,0,0,3.132,2.605,2.605,0,0,0,.972,1.017,2.54,2.54,0,0,0,2.592-.009,2.672,2.672,0,0,0,.972-1.026A3.22,3.22,0,0,0,135.4,20.978Zm6.93-8.3V26h-2.52V12.68Zm1.836,8.3a5.771,5.771,0,0,1,.6-2.682,4.42,4.42,0,0,1,1.638-1.8,4.361,4.361,0,0,1,2.313-.63,4.063,4.063,0,0,1,1.953.45,3.963,3.963,0,0,1,1.341,1.134V16.028h2.538V26H152.01V24.542a3.748,3.748,0,0,1-1.341,1.161,4.1,4.1,0,0,1-1.971.459,4.238,4.238,0,0,1-2.295-.648,4.535,4.535,0,0,1-1.638-1.827A5.867,5.867,0,0,1,144.162,20.978Zm7.848.036a3.232,3.232,0,0,0-.36-1.575,2.538,2.538,0,0,0-.972-1.008,2.6,2.6,0,0,0-1.314-.351,2.531,2.531,0,0,0-2.259,1.341,3.129,3.129,0,0,0-.369,1.557,3.232,3.232,0,0,0,.369,1.575,2.657,2.657,0,0,0,.972,1.035,2.469,2.469,0,0,0,1.287.36,2.6,2.6,0,0,0,1.314-.351,2.538,2.538,0,0,0,.972-1.008A3.232,3.232,0,0,0,152.01,21.014Zm7.938-2.916v4.824a.953.953,0,0,0,.243.729,1.194,1.194,0,0,0,.819.225h1.17V26H160.6q-3.186,0-3.186-3.1V18.1h-1.188v-2.07h1.188V13.562h2.538v2.466h2.232V18.1Zm13.32,2.7a5.948,5.948,0,0,1-.072.972h-7.29a2.479,2.479,0,0,0,.756,1.692,2.331,2.331,0,0,0,1.638.612,2.058,2.058,0,0,0,2-1.206h2.718a4.542,4.542,0,0,1-1.656,2.367,4.835,4.835,0,0,1-3.006.927,5.2,5.2,0,0,1-2.583-.639,4.5,4.5,0,0,1-1.782-1.809,5.543,5.543,0,0,1-.639-2.7,5.646,5.646,0,0,1,.63-2.718,4.4,4.4,0,0,1,1.764-1.8,5.664,5.664,0,0,1,5.157-.018,4.307,4.307,0,0,1,1.746,1.737A5.257,5.257,0,0,1,173.268,20.8Zm-2.61-.72a2,2,0,0,0-.7-1.557,2.487,2.487,0,0,0-1.674-.585,2.287,2.287,0,0,0-1.575.567,2.493,2.493,0,0,0-.783,1.575Z" transform="translate(131 510)"/><text transform="translate(79 533)" fill="#2befb3" font-size="50" font-family="Poppins-SemiBold, Poppins" font-weight="600"><tspan x="0" y="0">2 </tspan></text></g></svg>