<svg xmlns="http://www.w3.org/2000/svg" width="413" height="117" viewBox="0 0 413 117"><g transform="translate(-58 -471)"><rect width="413" height="117" rx="10" transform="translate(58 471)" fill="#fff"/><path d="M8.946-2.394h-5L3.114,0H.468L4.986-12.582H7.92L12.438,0H9.774ZM8.262-4.41,6.444-9.666,4.626-4.41Zm5.22-.612a5.772,5.772,0,0,1,.6-2.682,4.4,4.4,0,0,1,1.647-1.8,4.407,4.407,0,0,1,2.322-.63,4.235,4.235,0,0,1,1.854.423,3.707,3.707,0,0,1,1.4,1.125V-13.32h2.556V0H21.312V-1.476A3.415,3.415,0,0,1,20-.288a4.116,4.116,0,0,1-1.962.45,4.283,4.283,0,0,1-2.3-.648,4.512,4.512,0,0,1-1.647-1.827A5.867,5.867,0,0,1,13.482-5.022Zm7.848.036a3.232,3.232,0,0,0-.36-1.575A2.538,2.538,0,0,0,20-7.569a2.6,2.6,0,0,0-1.314-.351,2.552,2.552,0,0,0-1.3.342,2.575,2.575,0,0,0-.963,1,3.129,3.129,0,0,0-.369,1.557,3.233,3.233,0,0,0,.369,1.575A2.657,2.657,0,0,0,17.4-2.412a2.469,2.469,0,0,0,1.287.36A2.6,2.6,0,0,0,20-2.4a2.538,2.538,0,0,0,.972-1.008A3.232,3.232,0,0,0,21.33-4.986Zm4.356-.036a5.772,5.772,0,0,1,.6-2.682,4.4,4.4,0,0,1,1.647-1.8,4.407,4.407,0,0,1,2.322-.63,4.235,4.235,0,0,1,1.854.423,3.707,3.707,0,0,1,1.4,1.125V-13.32h2.556V0H33.516V-1.476A3.415,3.415,0,0,1,32.2-.288a4.116,4.116,0,0,1-1.962.45,4.283,4.283,0,0,1-2.3-.648,4.512,4.512,0,0,1-1.647-1.827A5.867,5.867,0,0,1,25.686-5.022Zm7.848.036a3.232,3.232,0,0,0-.36-1.575A2.538,2.538,0,0,0,32.2-7.569a2.6,2.6,0,0,0-1.314-.351,2.552,2.552,0,0,0-1.3.342,2.575,2.575,0,0,0-.963,1,3.129,3.129,0,0,0-.369,1.557,3.233,3.233,0,0,0,.369,1.575A2.657,2.657,0,0,0,29.6-2.412a2.469,2.469,0,0,0,1.287.36A2.6,2.6,0,0,0,32.2-2.4a2.538,2.538,0,0,0,.972-1.008A3.232,3.232,0,0,0,33.534-4.986ZM45.342-8.532a3.827,3.827,0,0,1,1.341-1.143,4.064,4.064,0,0,1,1.953-.459,4.361,4.361,0,0,1,2.313.63,4.432,4.432,0,0,1,1.638,1.791,5.757,5.757,0,0,1,.6,2.691,5.867,5.867,0,0,1-.6,2.709A4.535,4.535,0,0,1,50.949-.486a4.269,4.269,0,0,1-2.313.648A4.024,4.024,0,0,1,46.7-.288a4.151,4.151,0,0,1-1.359-1.134V4.752h-2.52V-9.972h2.52Zm5.274,3.51a3.129,3.129,0,0,0-.369-1.557,2.555,2.555,0,0,0-.972-1A2.6,2.6,0,0,0,47.97-7.92a2.517,2.517,0,0,0-1.287.351,2.605,2.605,0,0,0-.972,1.017,3.181,3.181,0,0,0-.369,1.566,3.181,3.181,0,0,0,.369,1.566A2.605,2.605,0,0,0,46.683-2.4a2.517,2.517,0,0,0,1.287.351,2.5,2.5,0,0,0,1.305-.36,2.672,2.672,0,0,0,.972-1.026A3.22,3.22,0,0,0,50.616-5.022Zm6.93-3.4a3.543,3.543,0,0,1,1.269-1.242,3.529,3.529,0,0,1,1.791-.45V-7.47H59.94a2.553,2.553,0,0,0-1.791.558,2.572,2.572,0,0,0-.6,1.944V0h-2.52V-9.972h2.52ZM66.726.162a5.252,5.252,0,0,1-2.592-.639,4.6,4.6,0,0,1-1.809-1.809,5.421,5.421,0,0,1-.657-2.7,5.305,5.305,0,0,1,.675-2.7A4.691,4.691,0,0,1,64.188-9.5a5.355,5.355,0,0,1,2.61-.639,5.355,5.355,0,0,1,2.61.639,4.691,4.691,0,0,1,1.845,1.809,5.306,5.306,0,0,1,.675,2.7,5.2,5.2,0,0,1-.693,2.7A4.8,4.8,0,0,1,69.363-.477,5.444,5.444,0,0,1,66.726.162Zm0-2.2a2.621,2.621,0,0,0,1.287-.333,2.42,2.42,0,0,0,.963-1,3.367,3.367,0,0,0,.36-1.62,3,3,0,0,0-.747-2.187,2.456,2.456,0,0,0-1.827-.765,2.4,2.4,0,0,0-1.809.765,3.047,3.047,0,0,0-.729,2.187A3.1,3.1,0,0,0,64.935-2.8,2.341,2.341,0,0,0,66.726-2.034Zm9.576-6.5a3.827,3.827,0,0,1,1.341-1.143,4.064,4.064,0,0,1,1.953-.459,4.361,4.361,0,0,1,2.313.63,4.433,4.433,0,0,1,1.638,1.791,5.757,5.757,0,0,1,.6,2.691,5.867,5.867,0,0,1-.6,2.709A4.535,4.535,0,0,1,81.909-.486,4.27,4.27,0,0,1,79.6.162a4.024,4.024,0,0,1-1.935-.45A4.151,4.151,0,0,1,76.3-1.422V4.752h-2.52V-9.972H76.3Zm5.274,3.51a3.129,3.129,0,0,0-.369-1.557,2.555,2.555,0,0,0-.972-1A2.6,2.6,0,0,0,78.93-7.92a2.517,2.517,0,0,0-1.287.351,2.605,2.605,0,0,0-.972,1.017A3.181,3.181,0,0,0,76.3-4.986a3.181,3.181,0,0,0,.369,1.566A2.605,2.605,0,0,0,77.643-2.4a2.517,2.517,0,0,0,1.287.351,2.5,2.5,0,0,0,1.305-.36,2.672,2.672,0,0,0,.972-1.026A3.22,3.22,0,0,0,81.576-5.022Zm13.68-.18a5.948,5.948,0,0,1-.072.972h-7.29a2.479,2.479,0,0,0,.756,1.692,2.331,2.331,0,0,0,1.638.612,2.058,2.058,0,0,0,2-1.206H95A4.542,4.542,0,0,1,93.348-.765a4.835,4.835,0,0,1-3.006.927,5.2,5.2,0,0,1-2.583-.639,4.5,4.5,0,0,1-1.782-1.809,5.543,5.543,0,0,1-.639-2.7,5.646,5.646,0,0,1,.63-2.718,4.4,4.4,0,0,1,1.764-1.8,5.285,5.285,0,0,1,2.61-.63,5.243,5.243,0,0,1,2.547.612,4.307,4.307,0,0,1,1.746,1.737A5.256,5.256,0,0,1,95.256-5.2Zm-2.61-.72a2,2,0,0,0-.7-1.557,2.487,2.487,0,0,0-1.674-.585,2.287,2.287,0,0,0-1.575.567,2.493,2.493,0,0,0-.783,1.575Zm6.966-2.5a3.543,3.543,0,0,1,1.269-1.242,3.529,3.529,0,0,1,1.791-.45V-7.47h-.666a2.553,2.553,0,0,0-1.791.558,2.572,2.572,0,0,0-.6,1.944V0h-2.52V-9.972h2.52ZM107.3-7.9v4.824a.953.953,0,0,0,.243.729,1.194,1.194,0,0,0,.819.225h1.17V0h-1.584q-3.186,0-3.186-3.1V-7.9h-1.188v-2.07h1.188v-2.466H107.3v2.466h2.232V-7.9Zm5.328-3.258a1.535,1.535,0,0,1-1.107-.423,1.4,1.4,0,0,1-.441-1.053,1.4,1.4,0,0,1,.441-1.053,1.535,1.535,0,0,1,1.107-.423,1.535,1.535,0,0,1,1.107.423,1.4,1.4,0,0,1,.441,1.053,1.4,1.4,0,0,1-.441,1.053A1.535,1.535,0,0,1,112.626-11.16Zm1.242,1.188V0h-2.52V-9.972ZM125.622-5.2a5.948,5.948,0,0,1-.072.972h-7.29a2.479,2.479,0,0,0,.756,1.692,2.331,2.331,0,0,0,1.638.612,2.058,2.058,0,0,0,2-1.206h2.718a4.542,4.542,0,0,1-1.656,2.367,4.835,4.835,0,0,1-3.006.927,5.2,5.2,0,0,1-2.583-.639,4.5,4.5,0,0,1-1.782-1.809,5.543,5.543,0,0,1-.639-2.7,5.646,5.646,0,0,1,.63-2.718A4.4,4.4,0,0,1,118.1-9.5a5.285,5.285,0,0,1,2.61-.63,5.243,5.243,0,0,1,2.547.612A4.307,4.307,0,0,1,125-7.785,5.256,5.256,0,0,1,125.622-5.2Zm-2.61-.72a2,2,0,0,0-.7-1.557,2.487,2.487,0,0,0-1.674-.585,2.287,2.287,0,0,0-1.575.567,2.493,2.493,0,0,0-.783,1.575ZM131.274.162a5.258,5.258,0,0,1-2.2-.441,3.88,3.88,0,0,1-1.539-1.2,3.033,3.033,0,0,1-.621-1.674h2.538a1.382,1.382,0,0,0,.567.954,1.972,1.972,0,0,0,1.233.378,1.915,1.915,0,0,0,1.125-.288.872.872,0,0,0,.405-.738.778.778,0,0,0-.5-.729,9.314,9.314,0,0,0-1.575-.531,13.347,13.347,0,0,1-1.827-.558,3.172,3.172,0,0,1-1.224-.882,2.367,2.367,0,0,1-.513-1.6,2.585,2.585,0,0,1,.477-1.512A3.2,3.2,0,0,1,129-9.738a5.128,5.128,0,0,1,2.1-.4,4.282,4.282,0,0,1,2.844.891,3.3,3.3,0,0,1,1.17,2.4H132.7a1.306,1.306,0,0,0-.495-.945,1.84,1.84,0,0,0-1.179-.351,1.858,1.858,0,0,0-1.053.252.8.8,0,0,0-.369.7.825.825,0,0,0,.5.765,7.827,7.827,0,0,0,1.566.531,13.293,13.293,0,0,1,1.782.558,3.148,3.148,0,0,1,1.215.891,2.447,2.447,0,0,1,.531,1.593,2.642,2.642,0,0,1-.477,1.548,3.142,3.142,0,0,1-1.368,1.071A5.183,5.183,0,0,1,131.274.162ZM146.124-7.9h-1.746V0h-2.556V-7.9h-1.134v-2.07h1.134v-.5a3.306,3.306,0,0,1,1.044-2.7,4.664,4.664,0,0,1,3.15-.81v2.124a1.87,1.87,0,0,0-1.278.306,1.532,1.532,0,0,0-.36,1.17v.414h1.746ZM152.19.162A5.252,5.252,0,0,1,149.6-.477a4.6,4.6,0,0,1-1.809-1.809,5.42,5.42,0,0,1-.657-2.7,5.306,5.306,0,0,1,.675-2.7A4.691,4.691,0,0,1,149.652-9.5a5.355,5.355,0,0,1,2.61-.639,5.355,5.355,0,0,1,2.61.639,4.691,4.691,0,0,1,1.845,1.809,5.306,5.306,0,0,1,.675,2.7,5.2,5.2,0,0,1-.693,2.7,4.8,4.8,0,0,1-1.872,1.809A5.444,5.444,0,0,1,152.19.162Zm0-2.2a2.621,2.621,0,0,0,1.287-.333,2.42,2.42,0,0,0,.963-1,3.366,3.366,0,0,0,.36-1.62,3,3,0,0,0-.747-2.187,2.456,2.456,0,0,0-1.827-.765,2.4,2.4,0,0,0-1.809.765,3.047,3.047,0,0,0-.729,2.187A3.1,3.1,0,0,0,150.4-2.8,2.341,2.341,0,0,0,152.19-2.034Zm9.576-6.39a3.543,3.543,0,0,1,1.269-1.242,3.529,3.529,0,0,1,1.791-.45V-7.47h-.666a2.553,2.553,0,0,0-1.791.558,2.572,2.572,0,0,0-.6,1.944V0h-2.52V-9.972h2.52ZM174.618.162a5.258,5.258,0,0,1-2.2-.441,3.88,3.88,0,0,1-1.539-1.2,3.033,3.033,0,0,1-.621-1.674H172.8a1.382,1.382,0,0,0,.567.954,1.972,1.972,0,0,0,1.233.378,1.915,1.915,0,0,0,1.125-.288.872.872,0,0,0,.405-.738.778.778,0,0,0-.5-.729A9.314,9.314,0,0,0,174.06-4.1a13.347,13.347,0,0,1-1.827-.558,3.172,3.172,0,0,1-1.224-.882,2.367,2.367,0,0,1-.513-1.6,2.585,2.585,0,0,1,.477-1.512,3.2,3.2,0,0,1,1.368-1.08,5.128,5.128,0,0,1,2.1-.4,4.282,4.282,0,0,1,2.844.891,3.3,3.3,0,0,1,1.17,2.4H176.04a1.306,1.306,0,0,0-.495-.945,1.84,1.84,0,0,0-1.179-.351,1.858,1.858,0,0,0-1.053.252.8.8,0,0,0-.369.7.825.825,0,0,0,.5.765,7.827,7.827,0,0,0,1.566.531,13.293,13.293,0,0,1,1.782.558,3.148,3.148,0,0,1,1.215.891,2.447,2.447,0,0,1,.531,1.593,2.642,2.642,0,0,1-.477,1.548A3.142,3.142,0,0,1,176.7-.225,5.183,5.183,0,0,1,174.618.162Zm10.422,0a5.252,5.252,0,0,1-2.592-.639,4.6,4.6,0,0,1-1.809-1.809,5.42,5.42,0,0,1-.657-2.7,5.306,5.306,0,0,1,.675-2.7A4.691,4.691,0,0,1,182.5-9.5a5.355,5.355,0,0,1,2.61-.639,5.355,5.355,0,0,1,2.61.639,4.691,4.691,0,0,1,1.845,1.809,5.306,5.306,0,0,1,.675,2.7,5.2,5.2,0,0,1-.693,2.7,4.8,4.8,0,0,1-1.872,1.809A5.444,5.444,0,0,1,185.04.162Zm0-2.2a2.621,2.621,0,0,0,1.287-.333,2.42,2.42,0,0,0,.963-1,3.366,3.366,0,0,0,.36-1.62,3,3,0,0,0-.747-2.187,2.456,2.456,0,0,0-1.827-.765,2.4,2.4,0,0,0-1.809.765,3.047,3.047,0,0,0-.729,2.187,3.1,3.1,0,0,0,.711,2.187A2.341,2.341,0,0,0,185.04-2.034Zm19.44-8.082a4,4,0,0,1,2.961,1.125,4.246,4.246,0,0,1,1.125,3.141V0h-2.52V-5.508a2.491,2.491,0,0,0-.594-1.791,2.136,2.136,0,0,0-1.62-.621A2.166,2.166,0,0,0,202.2-7.3a2.468,2.468,0,0,0-.6,1.791V0h-2.52V-5.508a2.491,2.491,0,0,0-.594-1.791,2.136,2.136,0,0,0-1.62-.621,2.189,2.189,0,0,0-1.647.621,2.468,2.468,0,0,0-.6,1.791V0H192.1V-9.972h2.52v1.206a3.354,3.354,0,0,1,1.251-.99,3.9,3.9,0,0,1,1.683-.36,4.329,4.329,0,0,1,2.088.5,3.469,3.469,0,0,1,1.422,1.413,3.61,3.61,0,0,1,1.413-1.386A4.023,4.023,0,0,1,204.48-10.116ZM220.23-5.2a5.948,5.948,0,0,1-.072.972h-7.29a2.479,2.479,0,0,0,.756,1.692,2.331,2.331,0,0,0,1.638.612,2.058,2.058,0,0,0,2-1.206h2.718a4.542,4.542,0,0,1-1.656,2.367,4.835,4.835,0,0,1-3.006.927,5.2,5.2,0,0,1-2.583-.639,4.5,4.5,0,0,1-1.782-1.809,5.543,5.543,0,0,1-.639-2.7,5.646,5.646,0,0,1,.63-2.718,4.4,4.4,0,0,1,1.764-1.8,5.284,5.284,0,0,1,2.61-.63,5.243,5.243,0,0,1,2.547.612,4.307,4.307,0,0,1,1.746,1.737A5.257,5.257,0,0,1,220.23-5.2Zm-2.61-.72a2,2,0,0,0-.7-1.557,2.487,2.487,0,0,0-1.674-.585,2.287,2.287,0,0,0-1.575.567,2.493,2.493,0,0,0-.783,1.575Zm11.25-2.5a3.543,3.543,0,0,1,1.269-1.242,3.529,3.529,0,0,1,1.791-.45V-7.47h-.666a2.553,2.553,0,0,0-1.791.558,2.572,2.572,0,0,0-.6,1.944V0h-2.52V-9.972h2.52ZM242.892-5.2a5.95,5.95,0,0,1-.072.972h-7.29a2.479,2.479,0,0,0,.756,1.692,2.331,2.331,0,0,0,1.638.612,2.058,2.058,0,0,0,2-1.206h2.718a4.542,4.542,0,0,1-1.656,2.367,4.835,4.835,0,0,1-3.006.927,5.2,5.2,0,0,1-2.583-.639,4.5,4.5,0,0,1-1.782-1.809,5.543,5.543,0,0,1-.639-2.7A5.646,5.646,0,0,1,233.6-7.7a4.4,4.4,0,0,1,1.764-1.8,5.284,5.284,0,0,1,2.61-.63,5.243,5.243,0,0,1,2.547.612,4.307,4.307,0,0,1,1.746,1.737A5.257,5.257,0,0,1,242.892-5.2Zm-2.61-.72a2,2,0,0,0-.7-1.557,2.487,2.487,0,0,0-1.674-.585,2.287,2.287,0,0,0-1.575.567,2.493,2.493,0,0,0-.783,1.575Zm3.8.9a5.771,5.771,0,0,1,.6-2.682,4.42,4.42,0,0,1,1.638-1.8,4.361,4.361,0,0,1,2.313-.63,4.063,4.063,0,0,1,1.953.45,3.963,3.963,0,0,1,1.341,1.134V-9.972h2.538V0h-2.538V-1.458A3.748,3.748,0,0,1,250.587-.3a4.1,4.1,0,0,1-1.971.459,4.238,4.238,0,0,1-2.295-.648,4.535,4.535,0,0,1-1.638-1.827A5.867,5.867,0,0,1,244.08-5.022Zm7.848.036a3.232,3.232,0,0,0-.36-1.575,2.538,2.538,0,0,0-.972-1.008,2.6,2.6,0,0,0-1.314-.351,2.552,2.552,0,0,0-1.3.342,2.575,2.575,0,0,0-.963,1,3.129,3.129,0,0,0-.369,1.557,3.233,3.233,0,0,0,.369,1.575,2.657,2.657,0,0,0,.972,1.035,2.469,2.469,0,0,0,1.287.36A2.6,2.6,0,0,0,250.6-2.4a2.538,2.538,0,0,0,.972-1.008A3.232,3.232,0,0,0,251.928-4.986Zm4.356,0a5.593,5.593,0,0,1,.63-2.709,4.5,4.5,0,0,1,1.746-1.8,5.052,5.052,0,0,1,2.556-.639,4.914,4.914,0,0,1,3.069.927,4.509,4.509,0,0,1,1.629,2.6H263.2a1.988,1.988,0,0,0-.729-1.017,2.116,2.116,0,0,0-1.269-.369,2.078,2.078,0,0,0-1.71.783,3.466,3.466,0,0,0-.63,2.223,3.434,3.434,0,0,0,.63,2.2A2.078,2.078,0,0,0,261.2-2a1.911,1.911,0,0,0,2-1.368h2.718a4.6,4.6,0,0,1-1.638,2.574,4.827,4.827,0,0,1-3.06.954,5.052,5.052,0,0,1-2.556-.639,4.5,4.5,0,0,1-1.746-1.8A5.593,5.593,0,0,1,256.284-4.986ZM270.7-7.9v4.824a.953.953,0,0,0,.243.729,1.194,1.194,0,0,0,.819.225h1.17V0H271.35q-3.186,0-3.186-3.1V-7.9h-1.188v-2.07h1.188v-2.466H270.7v2.466h2.232V-7.9Zm5.328-3.258a1.535,1.535,0,0,1-1.107-.423,1.4,1.4,0,0,1-.441-1.053,1.4,1.4,0,0,1,.441-1.053,1.535,1.535,0,0,1,1.107-.423,1.536,1.536,0,0,1,1.107.423,1.4,1.4,0,0,1,.441,1.053,1.4,1.4,0,0,1-.441,1.053A1.536,1.536,0,0,1,276.03-11.16Zm1.242,1.188V0h-2.52V-9.972Zm6.642,7.65,2.52-7.65h2.682L285.426,0h-3.06l-3.672-9.972h2.7Zm7.9-8.838a1.535,1.535,0,0,1-1.107-.423,1.4,1.4,0,0,1-.441-1.053,1.4,1.4,0,0,1,.441-1.053,1.535,1.535,0,0,1,1.107-.423,1.536,1.536,0,0,1,1.107.423,1.4,1.4,0,0,1,.441,1.053,1.4,1.4,0,0,1-.441,1.053A1.536,1.536,0,0,1,291.816-11.16Zm1.242,1.188V0h-2.52V-9.972Zm5.418,2.07v4.824a.953.953,0,0,0,.243.729,1.194,1.194,0,0,0,.819.225h1.17V0h-1.584q-3.186,0-3.186-3.1V-7.9H294.75v-2.07h1.188v-2.466h2.538v2.466h2.232V-7.9Zm13.59-2.07L305.892,4.716H303.21l2.16-4.968-4-9.72H304.2l2.574,6.966,2.61-6.966ZM.594,20.978A5.772,5.772,0,0,1,1.2,18.3a4.42,4.42,0,0,1,1.638-1.8,4.361,4.361,0,0,1,2.313-.63,4.063,4.063,0,0,1,1.953.45A3.963,3.963,0,0,1,8.442,17.45V16.028H10.98V26H8.442V24.542A3.748,3.748,0,0,1,7.1,25.7a4.1,4.1,0,0,1-1.971.459,4.238,4.238,0,0,1-2.3-.648A4.535,4.535,0,0,1,1.2,23.687,5.867,5.867,0,0,1,.594,20.978Zm7.848.036a3.232,3.232,0,0,0-.36-1.575,2.538,2.538,0,0,0-.972-1.008A2.6,2.6,0,0,0,5.8,18.08a2.531,2.531,0,0,0-2.259,1.341,3.129,3.129,0,0,0-.369,1.557,3.233,3.233,0,0,0,.369,1.575,2.657,2.657,0,0,0,.972,1.035,2.469,2.469,0,0,0,1.287.36A2.6,2.6,0,0,0,7.11,23.6a2.538,2.538,0,0,0,.972-1.008A3.232,3.232,0,0,0,8.442,21.014Zm10.53-5.13a3.844,3.844,0,0,1,2.88,1.125,4.307,4.307,0,0,1,1.1,3.141V26H20.43V20.492a2.586,2.586,0,0,0-.594-1.827,2.1,2.1,0,0,0-1.62-.639,2.156,2.156,0,0,0-1.647.639,2.561,2.561,0,0,0-.6,1.827V26h-2.52V16.028h2.52V17.27a3.481,3.481,0,0,1,1.287-1.017A3.981,3.981,0,0,1,18.972,15.884ZM24.7,20.978a5.772,5.772,0,0,1,.6-2.682,4.347,4.347,0,0,1,3.969-2.43,4.235,4.235,0,0,1,1.854.423,3.707,3.707,0,0,1,1.4,1.125V12.68h2.556V26H32.526V24.524a3.415,3.415,0,0,1-1.314,1.188,4.116,4.116,0,0,1-1.962.45,4.283,4.283,0,0,1-2.3-.648A4.512,4.512,0,0,1,25.3,23.687,5.867,5.867,0,0,1,24.7,20.978Zm7.848.036a3.232,3.232,0,0,0-.36-1.575,2.538,2.538,0,0,0-.972-1.008A2.6,2.6,0,0,0,29.9,18.08a2.531,2.531,0,0,0-2.259,1.341,3.129,3.129,0,0,0-.369,1.557,3.233,3.233,0,0,0,.369,1.575,2.657,2.657,0,0,0,.972,1.035,2.469,2.469,0,0,0,1.287.36,2.6,2.6,0,0,0,1.314-.351,2.538,2.538,0,0,0,.972-1.008A3.232,3.232,0,0,0,32.544,21.014Zm8.64,0a5.593,5.593,0,0,1,.63-2.709,4.5,4.5,0,0,1,1.746-1.8,5.052,5.052,0,0,1,2.556-.639,4.914,4.914,0,0,1,3.069.927,4.509,4.509,0,0,1,1.629,2.6H48.1a1.988,1.988,0,0,0-.729-1.017,2.116,2.116,0,0,0-1.269-.369,2.078,2.078,0,0,0-1.71.783,3.466,3.466,0,0,0-.63,2.223,3.434,3.434,0,0,0,.63,2.2A2.078,2.078,0,0,0,46.1,24a1.911,1.911,0,0,0,2-1.368h2.718a4.6,4.6,0,0,1-1.638,2.574,4.827,4.827,0,0,1-3.06.954,5.052,5.052,0,0,1-2.556-.639,4.5,4.5,0,0,1-1.746-1.8A5.593,5.593,0,0,1,41.184,21.014ZM57.1,26.162a5.252,5.252,0,0,1-2.592-.639,4.6,4.6,0,0,1-1.809-1.809,5.421,5.421,0,0,1-.657-2.7,5.305,5.305,0,0,1,.675-2.7A4.691,4.691,0,0,1,54.558,16.5a5.65,5.65,0,0,1,5.22,0,4.691,4.691,0,0,1,1.845,1.809,5.306,5.306,0,0,1,.675,2.7,5.2,5.2,0,0,1-.693,2.7,4.8,4.8,0,0,1-1.872,1.809A5.443,5.443,0,0,1,57.1,26.162Zm0-2.2a2.621,2.621,0,0,0,1.287-.333,2.42,2.42,0,0,0,.963-1,3.367,3.367,0,0,0,.36-1.62,3,3,0,0,0-.747-2.187,2.456,2.456,0,0,0-1.827-.765,2.4,2.4,0,0,0-1.809.765,3.047,3.047,0,0,0-.729,2.187,3.1,3.1,0,0,0,.711,2.187A2.341,2.341,0,0,0,57.1,23.966Zm19.44-8.082A4,4,0,0,1,79.5,17.009a4.246,4.246,0,0,1,1.125,3.141V26H78.1V20.492a2.491,2.491,0,0,0-.594-1.791,2.136,2.136,0,0,0-1.62-.621,2.166,2.166,0,0,0-1.629.621,2.468,2.468,0,0,0-.6,1.791V26h-2.52V20.492a2.491,2.491,0,0,0-.594-1.791,2.136,2.136,0,0,0-1.62-.621,2.189,2.189,0,0,0-1.647.621,2.468,2.468,0,0,0-.6,1.791V26h-2.52V16.028h2.52v1.206a3.354,3.354,0,0,1,1.251-.99,3.9,3.9,0,0,1,1.683-.36,4.329,4.329,0,0,1,2.088.5,3.469,3.469,0,0,1,1.422,1.413,3.61,3.61,0,0,1,1.413-1.386A4.023,4.023,0,0,1,76.536,15.884Zm18.864,0a4,4,0,0,1,2.961,1.125,4.246,4.246,0,0,1,1.125,3.141V26h-2.52V20.492a2.491,2.491,0,0,0-.594-1.791,2.136,2.136,0,0,0-1.62-.621,2.166,2.166,0,0,0-1.629.621,2.468,2.468,0,0,0-.6,1.791V26H90V20.492a2.491,2.491,0,0,0-.594-1.791,2.136,2.136,0,0,0-1.62-.621,2.189,2.189,0,0,0-1.647.621,2.468,2.468,0,0,0-.6,1.791V26h-2.52V16.028h2.52v1.206a3.354,3.354,0,0,1,1.251-.99,3.9,3.9,0,0,1,1.683-.36,4.329,4.329,0,0,1,2.088.5,3.469,3.469,0,0,1,1.422,1.413,3.61,3.61,0,0,1,1.413-1.386A4.023,4.023,0,0,1,95.4,15.884Zm15.894.144V26h-2.538V24.74a3.327,3.327,0,0,1-1.269,1.017,3.939,3.939,0,0,1-1.7.369,4.225,4.225,0,0,1-2.07-.495,3.489,3.489,0,0,1-1.413-1.458,4.818,4.818,0,0,1-.513-2.3v-5.85h2.52v5.49a2.586,2.586,0,0,0,.594,1.827,2.1,2.1,0,0,0,1.62.639,2.126,2.126,0,0,0,1.638-.639,2.586,2.586,0,0,0,.594-1.827v-5.49Zm8.01-.144a3.844,3.844,0,0,1,2.88,1.125,4.307,4.307,0,0,1,1.1,3.141V26h-2.52V20.492a2.586,2.586,0,0,0-.594-1.827,2.1,2.1,0,0,0-1.62-.639,2.156,2.156,0,0,0-1.647.639,2.561,2.561,0,0,0-.6,1.827V26h-2.52V16.028h2.52V17.27a3.481,3.481,0,0,1,1.287-1.017A3.981,3.981,0,0,1,119.3,15.884Zm7.65-1.044a1.535,1.535,0,0,1-1.107-.423,1.478,1.478,0,0,1,0-2.106,1.66,1.66,0,0,1,2.214,0,1.478,1.478,0,0,1,0,2.106A1.536,1.536,0,0,1,126.954,14.84Zm1.242,1.188V26h-2.52V16.028Zm1.836,4.986a5.593,5.593,0,0,1,.63-2.709,4.5,4.5,0,0,1,1.746-1.8,5.052,5.052,0,0,1,2.556-.639,4.914,4.914,0,0,1,3.069.927,4.509,4.509,0,0,1,1.629,2.6h-2.718a1.988,1.988,0,0,0-.729-1.017,2.116,2.116,0,0,0-1.269-.369,2.078,2.078,0,0,0-1.71.783,3.466,3.466,0,0,0-.63,2.223,3.434,3.434,0,0,0,.63,2.2,2.078,2.078,0,0,0,1.71.783,1.911,1.911,0,0,0,2-1.368h2.718a4.6,4.6,0,0,1-1.638,2.574,4.827,4.827,0,0,1-3.06.954,5.052,5.052,0,0,1-2.556-.639,4.5,4.5,0,0,1-1.746-1.8A5.593,5.593,0,0,1,130.032,21.014Zm10.836-.036a5.771,5.771,0,0,1,.6-2.682,4.42,4.42,0,0,1,1.638-1.8,4.361,4.361,0,0,1,2.313-.63,4.063,4.063,0,0,1,1.953.45,3.963,3.963,0,0,1,1.341,1.134V16.028h2.538V26h-2.538V24.542a3.748,3.748,0,0,1-1.341,1.161,4.1,4.1,0,0,1-1.971.459,4.238,4.238,0,0,1-2.295-.648,4.535,4.535,0,0,1-1.638-1.827A5.867,5.867,0,0,1,140.868,20.978Zm7.848.036a3.232,3.232,0,0,0-.36-1.575,2.538,2.538,0,0,0-.972-1.008,2.6,2.6,0,0,0-1.314-.351,2.531,2.531,0,0,0-2.259,1.341,3.129,3.129,0,0,0-.369,1.557,3.232,3.232,0,0,0,.369,1.575,2.657,2.657,0,0,0,.972,1.035,2.469,2.469,0,0,0,1.287.36,2.6,2.6,0,0,0,1.314-.351,2.538,2.538,0,0,0,.972-1.008A3.232,3.232,0,0,0,148.716,21.014Zm7.938-2.916v4.824a.953.953,0,0,0,.243.729,1.194,1.194,0,0,0,.819.225h1.17V26H157.3q-3.186,0-3.186-3.1V18.1h-1.188v-2.07h1.188V13.562h2.538v2.466h2.232V18.1Zm5.328-3.258a1.536,1.536,0,0,1-1.107-.423,1.478,1.478,0,0,1,0-2.106,1.66,1.66,0,0,1,2.214,0,1.478,1.478,0,0,1,0,2.106A1.535,1.535,0,0,1,161.982,14.84Zm1.242,1.188V26H160.7V16.028Zm6.912,10.134a5.252,5.252,0,0,1-2.592-.639,4.6,4.6,0,0,1-1.809-1.809,5.42,5.42,0,0,1-.657-2.7,5.306,5.306,0,0,1,.675-2.7A4.691,4.691,0,0,1,167.6,16.5a5.65,5.65,0,0,1,5.22,0,4.691,4.691,0,0,1,1.845,1.809,5.306,5.306,0,0,1,.675,2.7,5.2,5.2,0,0,1-.693,2.7,4.8,4.8,0,0,1-1.872,1.809A5.444,5.444,0,0,1,170.136,26.162Zm0-2.2a2.621,2.621,0,0,0,1.287-.333,2.42,2.42,0,0,0,.963-1,3.366,3.366,0,0,0,.36-1.62A3,3,0,0,0,172,18.827a2.456,2.456,0,0,0-1.827-.765,2.4,2.4,0,0,0-1.809.765,3.047,3.047,0,0,0-.729,2.187,3.1,3.1,0,0,0,.711,2.187A2.341,2.341,0,0,0,170.136,23.966Zm12.582-8.082a3.844,3.844,0,0,1,2.88,1.125,4.307,4.307,0,0,1,1.1,3.141V26h-2.52V20.492a2.586,2.586,0,0,0-.594-1.827,2.1,2.1,0,0,0-1.62-.639,2.156,2.156,0,0,0-1.647.639,2.561,2.561,0,0,0-.6,1.827V26h-2.52V16.028h2.52V17.27A3.482,3.482,0,0,1,181,16.253,3.981,3.981,0,0,1,182.718,15.884Zm24.48.144L204.282,26h-2.718l-1.818-6.966L197.928,26h-2.736l-2.934-9.972h2.556l1.764,7.6,1.908-7.6h2.664l1.872,7.578,1.764-7.578Zm2.646-1.188a1.536,1.536,0,0,1-1.107-.423,1.478,1.478,0,0,1,0-2.106,1.66,1.66,0,0,1,2.214,0,1.478,1.478,0,0,1,0,2.106A1.535,1.535,0,0,1,209.844,14.84Zm1.242,1.188V26h-2.52V16.028ZM216.5,18.1v4.824a.953.953,0,0,0,.243.729,1.194,1.194,0,0,0,.819.225h1.17V26h-1.584q-3.186,0-3.186-3.1V18.1h-1.188v-2.07h1.188V13.562H216.5v2.466h2.232V18.1Zm9.666-2.214a4.048,4.048,0,0,1,2.016.5,3.411,3.411,0,0,1,1.377,1.458,5.005,5.005,0,0,1,.495,2.313V26h-2.52V20.492a2.586,2.586,0,0,0-.594-1.827,2.1,2.1,0,0,0-1.62-.639,2.156,2.156,0,0,0-1.647.639,2.561,2.561,0,0,0-.6,1.827V26h-2.52V12.68h2.52v4.59a3.285,3.285,0,0,1,1.3-1.017A4.292,4.292,0,0,1,226.17,15.884ZM4.176,44.1v4.824a.953.953,0,0,0,.243.729,1.194,1.194,0,0,0,.819.225h1.17V52H4.824q-3.186,0-3.186-3.1V44.1H.45v-2.07H1.638V39.562H4.176v2.466H6.408V44.1Zm9.666-2.214a4.048,4.048,0,0,1,2.016.495,3.411,3.411,0,0,1,1.377,1.458,5.006,5.006,0,0,1,.495,2.313V52H15.21V46.492a2.586,2.586,0,0,0-.594-1.827A2.1,2.1,0,0,0,13,44.026a2.156,2.156,0,0,0-1.647.639,2.561,2.561,0,0,0-.6,1.827V52H8.226V38.68h2.52v4.59a3.285,3.285,0,0,1,1.3-1.017A4.292,4.292,0,0,1,13.842,41.884ZM29.394,46.8a5.947,5.947,0,0,1-.072.972h-7.29a2.479,2.479,0,0,0,.756,1.692,2.331,2.331,0,0,0,1.638.612,2.058,2.058,0,0,0,2-1.206h2.718a4.542,4.542,0,0,1-1.656,2.367,4.835,4.835,0,0,1-3.006.927,5.2,5.2,0,0,1-2.583-.639,4.5,4.5,0,0,1-1.782-1.809,5.543,5.543,0,0,1-.639-2.7,5.646,5.646,0,0,1,.63-2.718,4.4,4.4,0,0,1,1.764-1.8,5.664,5.664,0,0,1,5.157-.018,4.307,4.307,0,0,1,1.746,1.737A5.256,5.256,0,0,1,29.394,46.8Zm-2.61-.72a2,2,0,0,0-.7-1.557,2.487,2.487,0,0,0-1.674-.585,2.287,2.287,0,0,0-1.575.567,2.493,2.493,0,0,0-.783,1.575Zm13.158,6.084a5.253,5.253,0,0,1-2.592-.639,4.6,4.6,0,0,1-1.809-1.809,5.421,5.421,0,0,1-.657-2.7,5.305,5.305,0,0,1,.675-2.7A4.691,4.691,0,0,1,37.4,42.5a5.65,5.65,0,0,1,5.22,0,4.691,4.691,0,0,1,1.845,1.809,5.306,5.306,0,0,1,.675,2.7,5.2,5.2,0,0,1-.693,2.7,4.8,4.8,0,0,1-1.872,1.809A5.444,5.444,0,0,1,39.942,52.162Zm0-2.2a2.621,2.621,0,0,0,1.287-.333,2.42,2.42,0,0,0,.963-1,3.367,3.367,0,0,0,.36-1.62,3,3,0,0,0-.747-2.187,2.456,2.456,0,0,0-1.827-.765,2.4,2.4,0,0,0-1.809.765,3.047,3.047,0,0,0-.729,2.187,3.1,3.1,0,0,0,.711,2.187A2.341,2.341,0,0,0,39.942,49.966Zm16.47-7.938V52H53.874V50.74A3.327,3.327,0,0,1,52.6,51.757a3.939,3.939,0,0,1-1.7.369,4.225,4.225,0,0,1-2.07-.495,3.489,3.489,0,0,1-1.413-1.458,4.818,4.818,0,0,1-.513-2.3v-5.85h2.52v5.49a2.586,2.586,0,0,0,.594,1.827,2.1,2.1,0,0,0,1.62.639,2.126,2.126,0,0,0,1.638-.639,2.586,2.586,0,0,0,.594-1.827v-5.49ZM61.83,44.1v4.824a.953.953,0,0,0,.243.729,1.194,1.194,0,0,0,.819.225h1.17V52H62.478q-3.186,0-3.186-3.1V44.1H58.1v-2.07h1.188V39.562H61.83v2.466h2.232V44.1ZM69.7,52.162a5.258,5.258,0,0,1-2.2-.441,3.88,3.88,0,0,1-1.539-1.2,3.033,3.033,0,0,1-.621-1.674h2.538a1.383,1.383,0,0,0,.567.954,1.972,1.972,0,0,0,1.233.378,1.915,1.915,0,0,0,1.125-.288.872.872,0,0,0,.4-.738.778.778,0,0,0-.5-.729,9.314,9.314,0,0,0-1.575-.531,13.348,13.348,0,0,1-1.827-.558,3.172,3.172,0,0,1-1.224-.882,2.367,2.367,0,0,1-.513-1.6,2.585,2.585,0,0,1,.477-1.512,3.2,3.2,0,0,1,1.368-1.08,5.128,5.128,0,0,1,2.1-.4,4.282,4.282,0,0,1,2.844.891,3.3,3.3,0,0,1,1.17,2.4H71.118a1.306,1.306,0,0,0-.5-.945,2.232,2.232,0,0,0-2.232-.1.8.8,0,0,0-.369.7.825.825,0,0,0,.5.765,7.826,7.826,0,0,0,1.566.531,13.293,13.293,0,0,1,1.782.558,3.148,3.148,0,0,1,1.215.891,2.447,2.447,0,0,1,.531,1.593,2.642,2.642,0,0,1-.477,1.548,3.142,3.142,0,0,1-1.368,1.071A5.183,5.183,0,0,1,69.7,52.162ZM76.968,40.84a1.535,1.535,0,0,1-1.107-.423,1.478,1.478,0,0,1,0-2.106,1.66,1.66,0,0,1,2.214,0,1.478,1.478,0,0,1,0,2.106A1.535,1.535,0,0,1,76.968,40.84Zm1.242,1.188V52H75.69V42.028Zm1.836,4.95a5.772,5.772,0,0,1,.6-2.682,4.347,4.347,0,0,1,3.969-2.43,4.235,4.235,0,0,1,1.854.423,3.707,3.707,0,0,1,1.4,1.125V38.68h2.556V52H87.876V50.524a3.415,3.415,0,0,1-1.314,1.188,4.116,4.116,0,0,1-1.962.45,4.283,4.283,0,0,1-2.3-.648,4.512,4.512,0,0,1-1.647-1.827A5.867,5.867,0,0,1,80.046,46.978Zm7.848.036a3.232,3.232,0,0,0-.36-1.575,2.538,2.538,0,0,0-.972-1.008,2.6,2.6,0,0,0-1.314-.351,2.531,2.531,0,0,0-2.259,1.341,3.129,3.129,0,0,0-.369,1.557,3.233,3.233,0,0,0,.369,1.575,2.657,2.657,0,0,0,.972,1.035,2.469,2.469,0,0,0,1.287.36,2.6,2.6,0,0,0,1.314-.351,2.538,2.538,0,0,0,.972-1.008A3.232,3.232,0,0,0,87.894,47.014Zm14.274-.216a5.948,5.948,0,0,1-.072.972h-7.29a2.479,2.479,0,0,0,.756,1.692,2.331,2.331,0,0,0,1.638.612,2.058,2.058,0,0,0,2-1.206h2.718a4.542,4.542,0,0,1-1.656,2.367,4.835,4.835,0,0,1-3.006.927,5.2,5.2,0,0,1-2.583-.639,4.5,4.5,0,0,1-1.782-1.809,5.543,5.543,0,0,1-.639-2.7,5.646,5.646,0,0,1,.63-2.718,4.4,4.4,0,0,1,1.764-1.8,5.664,5.664,0,0,1,5.157-.018,4.307,4.307,0,0,1,1.746,1.737A5.256,5.256,0,0,1,102.168,46.8Zm-2.61-.72a2,2,0,0,0-.7-1.557,2.487,2.487,0,0,0-1.674-.585,2.287,2.287,0,0,0-1.575.567,2.493,2.493,0,0,0-.783,1.575Z" transform="translate(131 510)"/><text transform="translate(79 533)" fill="#2befb3" font-size="50" font-family="Poppins-SemiBold, Poppins" font-weight="600"><tspan x="0" y="0">3</tspan></text></g></svg>