<svg xmlns="http://www.w3.org/2000/svg" width="413" height="91" viewBox="0 0 413 91"><g transform="translate(-58 -471)"><rect width="413" height="91" rx="10" transform="translate(58 471)" fill="#fff"/><path d="M9-12.564v2.034H3.762v3.222H7.776v2H3.762V0H1.242V-12.564Zm3.06,1.4a1.535,1.535,0,0,1-1.107-.423,1.4,1.4,0,0,1-.441-1.053,1.4,1.4,0,0,1,.441-1.053,1.535,1.535,0,0,1,1.107-.423,1.535,1.535,0,0,1,1.107.423,1.4,1.4,0,0,1,.441,1.053,1.4,1.4,0,0,1-.441,1.053A1.535,1.535,0,0,1,12.06-11.16ZM13.3-9.972V0h-2.52V-9.972Zm8.01-.144a3.844,3.844,0,0,1,2.88,1.125,4.307,4.307,0,0,1,1.1,3.141V0H22.77V-5.508a2.586,2.586,0,0,0-.594-1.827,2.1,2.1,0,0,0-1.62-.639,2.156,2.156,0,0,0-1.647.639,2.561,2.561,0,0,0-.6,1.827V0h-2.52V-9.972h2.52V-8.73a3.481,3.481,0,0,1,1.287-1.017A3.981,3.981,0,0,1,21.312-10.116Zm5.724,5.094a5.772,5.772,0,0,1,.6-2.682,4.42,4.42,0,0,1,1.638-1.8,4.361,4.361,0,0,1,2.313-.63,4.063,4.063,0,0,1,1.953.45A3.963,3.963,0,0,1,34.884-8.55V-9.972h2.538V0H34.884V-1.458A3.748,3.748,0,0,1,33.543-.3a4.1,4.1,0,0,1-1.971.459,4.238,4.238,0,0,1-2.3-.648,4.535,4.535,0,0,1-1.638-1.827A5.867,5.867,0,0,1,27.036-5.022Zm7.848.036a3.232,3.232,0,0,0-.36-1.575,2.538,2.538,0,0,0-.972-1.008,2.6,2.6,0,0,0-1.314-.351,2.552,2.552,0,0,0-1.3.342,2.575,2.575,0,0,0-.963,1,3.129,3.129,0,0,0-.369,1.557,3.233,3.233,0,0,0,.369,1.575,2.657,2.657,0,0,0,.972,1.035,2.469,2.469,0,0,0,1.287.36A2.6,2.6,0,0,0,33.552-2.4a2.538,2.538,0,0,0,.972-1.008A3.232,3.232,0,0,0,34.884-4.986Zm7.524-8.334V0h-2.52V-13.32Zm5,0V0h-2.52V-13.32ZM59.436-9.972,53.262,4.716H50.58L52.74-.252l-4-9.72H51.57l2.574,6.966,2.61-6.966Zm4.986,4.95a5.772,5.772,0,0,1,.6-2.682,4.4,4.4,0,0,1,1.647-1.8,4.407,4.407,0,0,1,2.322-.63,4.235,4.235,0,0,1,1.854.423,3.707,3.707,0,0,1,1.4,1.125V-13.32h2.556V0H72.252V-1.476A3.415,3.415,0,0,1,70.938-.288a4.116,4.116,0,0,1-1.962.45,4.283,4.283,0,0,1-2.3-.648,4.512,4.512,0,0,1-1.647-1.827A5.867,5.867,0,0,1,64.422-5.022Zm7.848.036a3.232,3.232,0,0,0-.36-1.575,2.538,2.538,0,0,0-.972-1.008,2.6,2.6,0,0,0-1.314-.351,2.552,2.552,0,0,0-1.3.342,2.575,2.575,0,0,0-.963,1A3.129,3.129,0,0,0,67-5.022a3.233,3.233,0,0,0,.369,1.575,2.657,2.657,0,0,0,.972,1.035,2.469,2.469,0,0,0,1.287.36A2.6,2.6,0,0,0,70.938-2.4a2.538,2.538,0,0,0,.972-1.008A3.232,3.232,0,0,0,72.27-4.986ZM86.544-5.2a5.948,5.948,0,0,1-.072.972h-7.29a2.479,2.479,0,0,0,.756,1.692,2.331,2.331,0,0,0,1.638.612,2.058,2.058,0,0,0,2-1.206h2.718A4.542,4.542,0,0,1,84.636-.765,4.835,4.835,0,0,1,81.63.162a5.2,5.2,0,0,1-2.583-.639,4.5,4.5,0,0,1-1.782-1.809,5.543,5.543,0,0,1-.639-2.7,5.646,5.646,0,0,1,.63-2.718A4.4,4.4,0,0,1,79.02-9.5a5.285,5.285,0,0,1,2.61-.63,5.243,5.243,0,0,1,2.547.612,4.307,4.307,0,0,1,1.746,1.737A5.256,5.256,0,0,1,86.544-5.2Zm-2.61-.72a2,2,0,0,0-.7-1.557,2.487,2.487,0,0,0-1.674-.585,2.287,2.287,0,0,0-1.575.567A2.493,2.493,0,0,0,79.2-5.922Zm3.8.936a5.593,5.593,0,0,1,.63-2.709,4.5,4.5,0,0,1,1.746-1.8,5.052,5.052,0,0,1,2.556-.639,4.914,4.914,0,0,1,3.069.927,4.509,4.509,0,0,1,1.629,2.6H94.644a1.988,1.988,0,0,0-.729-1.017,2.116,2.116,0,0,0-1.269-.369,2.078,2.078,0,0,0-1.71.783,3.466,3.466,0,0,0-.63,2.223,3.434,3.434,0,0,0,.63,2.2A2.078,2.078,0,0,0,92.646-2a1.911,1.911,0,0,0,2-1.368h2.718A4.6,4.6,0,0,1,95.724-.792a4.827,4.827,0,0,1-3.06.954,5.052,5.052,0,0,1-2.556-.639,4.5,4.5,0,0,1-1.746-1.8A5.593,5.593,0,0,1,87.732-4.986Zm14-8.334V0h-2.52V-13.32Zm1.836,8.3a5.772,5.772,0,0,1,.6-2.682,4.42,4.42,0,0,1,1.638-1.8,4.361,4.361,0,0,1,2.313-.63,4.063,4.063,0,0,1,1.953.45A3.963,3.963,0,0,1,111.42-8.55V-9.972h2.538V0H111.42V-1.458A3.748,3.748,0,0,1,110.079-.3a4.1,4.1,0,0,1-1.971.459,4.238,4.238,0,0,1-2.295-.648,4.535,4.535,0,0,1-1.638-1.827A5.867,5.867,0,0,1,103.572-5.022Zm7.848.036a3.232,3.232,0,0,0-.36-1.575,2.538,2.538,0,0,0-.972-1.008,2.6,2.6,0,0,0-1.314-.351,2.552,2.552,0,0,0-1.3.342,2.575,2.575,0,0,0-.963,1,3.129,3.129,0,0,0-.369,1.557,3.233,3.233,0,0,0,.369,1.575,2.657,2.657,0,0,0,.972,1.035,2.469,2.469,0,0,0,1.287.36,2.6,2.6,0,0,0,1.314-.351,2.538,2.538,0,0,0,.972-1.008A3.232,3.232,0,0,0,111.42-4.986Zm7.524-3.438a3.543,3.543,0,0,1,1.269-1.242,3.529,3.529,0,0,1,1.791-.45V-7.47h-.666a2.553,2.553,0,0,0-1.791.558,2.572,2.572,0,0,0-.6,1.944V0h-2.52V-9.972h2.52ZM132.966-5.2a5.947,5.947,0,0,1-.072.972H125.6a2.479,2.479,0,0,0,.756,1.692A2.331,2.331,0,0,0,128-1.926a2.058,2.058,0,0,0,2-1.206h2.718a4.542,4.542,0,0,1-1.656,2.367,4.835,4.835,0,0,1-3.006.927,5.2,5.2,0,0,1-2.583-.639,4.5,4.5,0,0,1-1.782-1.809,5.543,5.543,0,0,1-.639-2.7,5.646,5.646,0,0,1,.63-2.718,4.4,4.4,0,0,1,1.764-1.8,5.285,5.285,0,0,1,2.61-.63,5.243,5.243,0,0,1,2.547.612,4.307,4.307,0,0,1,1.746,1.737A5.256,5.256,0,0,1,132.966-5.2Zm-2.61-.72a2,2,0,0,0-.7-1.557,2.487,2.487,0,0,0-1.674-.585A2.287,2.287,0,0,0,126.4-7.5a2.493,2.493,0,0,0-.783,1.575Zm18.27-4.05L142.452,4.716H139.77l2.16-4.968-4-9.72h2.826l2.574,6.966,2.61-6.966ZM154.4.162a5.252,5.252,0,0,1-2.592-.639A4.6,4.6,0,0,1,150-2.286a5.42,5.42,0,0,1-.657-2.7,5.306,5.306,0,0,1,.675-2.7A4.691,4.691,0,0,1,151.866-9.5a5.355,5.355,0,0,1,2.61-.639,5.355,5.355,0,0,1,2.61.639,4.691,4.691,0,0,1,1.845,1.809,5.306,5.306,0,0,1,.675,2.7,5.2,5.2,0,0,1-.693,2.7,4.8,4.8,0,0,1-1.872,1.809A5.444,5.444,0,0,1,154.4.162Zm0-2.2a2.621,2.621,0,0,0,1.287-.333,2.42,2.42,0,0,0,.963-1,3.366,3.366,0,0,0,.36-1.62,3,3,0,0,0-.747-2.187,2.456,2.456,0,0,0-1.827-.765,2.4,2.4,0,0,0-1.809.765,3.047,3.047,0,0,0-.729,2.187,3.1,3.1,0,0,0,.711,2.187A2.341,2.341,0,0,0,154.4-2.034Zm16.47-7.938V0h-2.538V-1.26a3.327,3.327,0,0,1-1.269,1.017,3.939,3.939,0,0,1-1.7.369,4.225,4.225,0,0,1-2.07-.5,3.489,3.489,0,0,1-1.413-1.458,4.818,4.818,0,0,1-.513-2.3v-5.85h2.52v5.49a2.586,2.586,0,0,0,.594,1.827,2.1,2.1,0,0,0,1.62.639,2.127,2.127,0,0,0,1.638-.639,2.586,2.586,0,0,0,.594-1.827v-5.49Zm5,1.548a3.543,3.543,0,0,1,1.269-1.242,3.529,3.529,0,0,1,1.791-.45V-7.47h-.666a2.553,2.553,0,0,0-1.791.558,2.572,2.572,0,0,0-.6,1.944V0h-2.52V-9.972h2.52Zm13.608.522H187.74V0h-2.556V-7.9H184.05v-2.07h1.134v-.5a3.306,3.306,0,0,1,1.044-2.7,4.664,4.664,0,0,1,3.15-.81v2.124a1.87,1.87,0,0,0-1.278.306,1.532,1.532,0,0,0-.36,1.17v.414h1.746Zm11.052-2.07V0H198V-1.26a3.327,3.327,0,0,1-1.269,1.017,3.939,3.939,0,0,1-1.7.369,4.225,4.225,0,0,1-2.07-.5,3.489,3.489,0,0,1-1.413-1.458,4.818,4.818,0,0,1-.513-2.3v-5.85h2.52v5.49a2.586,2.586,0,0,0,.594,1.827,2.1,2.1,0,0,0,1.62.639,2.127,2.127,0,0,0,1.638-.639A2.586,2.586,0,0,0,198-4.482v-5.49Zm8.01-.144a3.844,3.844,0,0,1,2.88,1.125,4.307,4.307,0,0,1,1.1,3.141V0h-2.52V-5.508a2.586,2.586,0,0,0-.594-1.827,2.1,2.1,0,0,0-1.62-.639,2.156,2.156,0,0,0-1.647.639,2.561,2.561,0,0,0-.6,1.827V0h-2.52V-9.972h2.52V-8.73a3.482,3.482,0,0,1,1.287-1.017A3.981,3.981,0,0,1,208.548-10.116Zm5.724,5.13A5.593,5.593,0,0,1,214.9-7.7a4.5,4.5,0,0,1,1.746-1.8,5.052,5.052,0,0,1,2.556-.639,4.914,4.914,0,0,1,3.069.927,4.509,4.509,0,0,1,1.629,2.6h-2.718a1.988,1.988,0,0,0-.729-1.017,2.116,2.116,0,0,0-1.269-.369,2.078,2.078,0,0,0-1.71.783,3.466,3.466,0,0,0-.63,2.223,3.434,3.434,0,0,0,.63,2.2,2.078,2.078,0,0,0,1.71.783,1.911,1.911,0,0,0,2-1.368H223.9a4.6,4.6,0,0,1-1.638,2.574,4.827,4.827,0,0,1-3.06.954,5.052,5.052,0,0,1-2.556-.639,4.5,4.5,0,0,1-1.746-1.8A5.593,5.593,0,0,1,214.272-4.986ZM228.69-7.9v4.824a.953.953,0,0,0,.243.729,1.194,1.194,0,0,0,.819.225h1.17V0h-1.584q-3.186,0-3.186-3.1V-7.9h-1.188v-2.07h1.188v-2.466h2.538v2.466h2.232V-7.9Zm5.328-3.258a1.536,1.536,0,0,1-1.107-.423,1.4,1.4,0,0,1-.441-1.053,1.4,1.4,0,0,1,.441-1.053,1.536,1.536,0,0,1,1.107-.423,1.535,1.535,0,0,1,1.107.423,1.4,1.4,0,0,1,.441,1.053,1.4,1.4,0,0,1-.441,1.053A1.535,1.535,0,0,1,234.018-11.16Zm1.242,1.188V0h-2.52V-9.972ZM242.172.162a5.252,5.252,0,0,1-2.592-.639,4.6,4.6,0,0,1-1.809-1.809,5.42,5.42,0,0,1-.657-2.7,5.306,5.306,0,0,1,.675-2.7A4.691,4.691,0,0,1,239.634-9.5a5.355,5.355,0,0,1,2.61-.639,5.355,5.355,0,0,1,2.61.639A4.691,4.691,0,0,1,246.7-7.686a5.306,5.306,0,0,1,.675,2.7,5.2,5.2,0,0,1-.693,2.7,4.8,4.8,0,0,1-1.872,1.809A5.444,5.444,0,0,1,242.172.162Zm0-2.2a2.621,2.621,0,0,0,1.287-.333,2.42,2.42,0,0,0,.963-1,3.366,3.366,0,0,0,.36-1.62,3,3,0,0,0-.747-2.187,2.456,2.456,0,0,0-1.827-.765,2.4,2.4,0,0,0-1.809.765,3.047,3.047,0,0,0-.729,2.187,3.1,3.1,0,0,0,.711,2.187A2.341,2.341,0,0,0,242.172-2.034Zm12.582-8.082a3.844,3.844,0,0,1,2.88,1.125,4.307,4.307,0,0,1,1.1,3.141V0h-2.52V-5.508a2.586,2.586,0,0,0-.594-1.827A2.1,2.1,0,0,0,254-7.974a2.156,2.156,0,0,0-1.647.639,2.561,2.561,0,0,0-.6,1.827V0h-2.52V-9.972h2.52V-8.73a3.482,3.482,0,0,1,1.287-1.017A3.981,3.981,0,0,1,254.754-10.116ZM.594,20.978A5.772,5.772,0,0,1,1.2,18.3a4.42,4.42,0,0,1,1.638-1.8,4.361,4.361,0,0,1,2.313-.63,4.063,4.063,0,0,1,1.953.45A3.963,3.963,0,0,1,8.442,17.45V16.028H10.98V26H8.442V24.542A3.748,3.748,0,0,1,7.1,25.7a4.1,4.1,0,0,1-1.971.459,4.238,4.238,0,0,1-2.3-.648A4.535,4.535,0,0,1,1.2,23.687,5.867,5.867,0,0,1,.594,20.978Zm7.848.036a3.232,3.232,0,0,0-.36-1.575,2.538,2.538,0,0,0-.972-1.008A2.6,2.6,0,0,0,5.8,18.08a2.531,2.531,0,0,0-2.259,1.341,3.129,3.129,0,0,0-.369,1.557,3.233,3.233,0,0,0,.369,1.575,2.657,2.657,0,0,0,.972,1.035,2.469,2.469,0,0,0,1.287.36A2.6,2.6,0,0,0,7.11,23.6a2.538,2.538,0,0,0,.972-1.008A3.232,3.232,0,0,0,8.442,21.014Zm8.82,5.148a5.258,5.258,0,0,1-2.2-.441,3.88,3.88,0,0,1-1.539-1.2,3.034,3.034,0,0,1-.621-1.674h2.538a1.382,1.382,0,0,0,.567.954,1.972,1.972,0,0,0,1.233.378,1.915,1.915,0,0,0,1.125-.288.872.872,0,0,0,.405-.738.778.778,0,0,0-.5-.729A9.314,9.314,0,0,0,16.7,21.9a13.347,13.347,0,0,1-1.827-.558,3.172,3.172,0,0,1-1.224-.882,2.367,2.367,0,0,1-.513-1.6,2.585,2.585,0,0,1,.477-1.512,3.2,3.2,0,0,1,1.368-1.08,5.128,5.128,0,0,1,2.1-.4,4.282,4.282,0,0,1,2.844.891,3.3,3.3,0,0,1,1.17,2.4H18.684a1.306,1.306,0,0,0-.5-.945,1.84,1.84,0,0,0-1.179-.351,1.858,1.858,0,0,0-1.053.252.8.8,0,0,0-.369.7.825.825,0,0,0,.5.765,7.827,7.827,0,0,0,1.566.531,13.293,13.293,0,0,1,1.782.558,3.148,3.148,0,0,1,1.215.891,2.447,2.447,0,0,1,.531,1.593,2.642,2.642,0,0,1-.477,1.548,3.142,3.142,0,0,1-1.368,1.071A5.183,5.183,0,0,1,17.262,26.162Zm9.63-5.184a5.772,5.772,0,0,1,.6-2.682,4.42,4.42,0,0,1,1.638-1.8,4.361,4.361,0,0,1,2.313-.63,4.063,4.063,0,0,1,1.953.45A3.963,3.963,0,0,1,34.74,17.45V16.028h2.538V26H34.74V24.542A3.748,3.748,0,0,1,33.4,25.7a4.1,4.1,0,0,1-1.971.459,4.238,4.238,0,0,1-2.3-.648A4.535,4.535,0,0,1,27.5,23.687,5.867,5.867,0,0,1,26.892,20.978Zm7.848.036a3.232,3.232,0,0,0-.36-1.575,2.538,2.538,0,0,0-.972-1.008,2.6,2.6,0,0,0-1.314-.351,2.531,2.531,0,0,0-2.259,1.341,3.129,3.129,0,0,0-.369,1.557,3.233,3.233,0,0,0,.369,1.575,2.657,2.657,0,0,0,.972,1.035,2.469,2.469,0,0,0,1.287.36,2.6,2.6,0,0,0,1.314-.351,2.538,2.538,0,0,0,.972-1.008A3.232,3.232,0,0,0,34.74,21.014Zm23.112-4.986L54.936,26H52.218L50.4,19.034,48.582,26H45.846l-2.934-9.972h2.556l1.764,7.6,1.908-7.6H51.8l1.872,7.578,1.764-7.578ZM68.49,20.8a5.948,5.948,0,0,1-.072.972h-7.29a2.479,2.479,0,0,0,.756,1.692,2.331,2.331,0,0,0,1.638.612,2.058,2.058,0,0,0,2-1.206h2.718a4.542,4.542,0,0,1-1.656,2.367,4.835,4.835,0,0,1-3.006.927,5.2,5.2,0,0,1-2.583-.639,4.5,4.5,0,0,1-1.782-1.809,5.543,5.543,0,0,1-.639-2.7A5.646,5.646,0,0,1,59.2,18.3a4.4,4.4,0,0,1,1.764-1.8,5.664,5.664,0,0,1,5.157-.018,4.307,4.307,0,0,1,1.746,1.737A5.256,5.256,0,0,1,68.49,20.8Zm-2.61-.72a2,2,0,0,0-.7-1.557,2.487,2.487,0,0,0-1.674-.585,2.287,2.287,0,0,0-1.575.567,2.493,2.493,0,0,0-.783,1.575Zm6.966-2.592a3.6,3.6,0,0,1,1.341-1.17,4.13,4.13,0,0,1,1.953-.45,4.361,4.361,0,0,1,2.313.63,4.433,4.433,0,0,1,1.638,1.791,5.757,5.757,0,0,1,.6,2.691,5.867,5.867,0,0,1-.6,2.709,4.535,4.535,0,0,1-1.638,1.827,4.27,4.27,0,0,1-2.313.648,4.131,4.131,0,0,1-1.953-.441,3.794,3.794,0,0,1-1.341-1.143V26h-2.52V12.68h2.52Zm5.274,3.492a3.129,3.129,0,0,0-.369-1.557,2.555,2.555,0,0,0-.972-1,2.6,2.6,0,0,0-1.305-.342,2.517,2.517,0,0,0-1.287.351,2.605,2.605,0,0,0-.972,1.017,3.508,3.508,0,0,0,0,3.132,2.605,2.605,0,0,0,.972,1.017,2.54,2.54,0,0,0,2.592-.009,2.672,2.672,0,0,0,.972-1.026A3.22,3.22,0,0,0,78.12,20.978Zm3.762.036a5.593,5.593,0,0,1,.63-2.709,4.5,4.5,0,0,1,1.746-1.8,5.052,5.052,0,0,1,2.556-.639,4.914,4.914,0,0,1,3.069.927,4.509,4.509,0,0,1,1.629,2.6H88.794a1.988,1.988,0,0,0-.729-1.017,2.116,2.116,0,0,0-1.269-.369,2.078,2.078,0,0,0-1.71.783,3.466,3.466,0,0,0-.63,2.223,3.434,3.434,0,0,0,.63,2.2A2.078,2.078,0,0,0,86.8,24a1.911,1.911,0,0,0,2-1.368h2.718a4.6,4.6,0,0,1-1.638,2.574,4.827,4.827,0,0,1-3.06.954,5.052,5.052,0,0,1-2.556-.639,4.5,4.5,0,0,1-1.746-1.8A5.593,5.593,0,0,1,81.882,21.014Zm15.912,5.148a5.252,5.252,0,0,1-2.592-.639,4.6,4.6,0,0,1-1.809-1.809,5.421,5.421,0,0,1-.657-2.7,5.305,5.305,0,0,1,.675-2.7A4.691,4.691,0,0,1,95.256,16.5a5.65,5.65,0,0,1,5.22,0,4.691,4.691,0,0,1,1.845,1.809,5.305,5.305,0,0,1,.675,2.7,5.2,5.2,0,0,1-.693,2.7,4.8,4.8,0,0,1-1.872,1.809A5.444,5.444,0,0,1,97.794,26.162Zm0-2.2a2.621,2.621,0,0,0,1.287-.333,2.42,2.42,0,0,0,.963-1,3.367,3.367,0,0,0,.36-1.62,3,3,0,0,0-.747-2.187,2.456,2.456,0,0,0-1.827-.765,2.4,2.4,0,0,0-1.809.765,3.047,3.047,0,0,0-.729,2.187A3.1,3.1,0,0,0,96,23.2,2.341,2.341,0,0,0,97.794,23.966Zm19.44-8.082a4,4,0,0,1,2.961,1.125,4.246,4.246,0,0,1,1.125,3.141V26H118.8V20.492a2.491,2.491,0,0,0-.594-1.791,2.136,2.136,0,0,0-1.62-.621,2.166,2.166,0,0,0-1.629.621,2.468,2.468,0,0,0-.6,1.791V26h-2.52V20.492a2.491,2.491,0,0,0-.594-1.791,2.136,2.136,0,0,0-1.62-.621,2.189,2.189,0,0,0-1.647.621,2.468,2.468,0,0,0-.6,1.791V26h-2.52V16.028h2.52v1.206a3.354,3.354,0,0,1,1.251-.99,3.9,3.9,0,0,1,1.683-.36,4.329,4.329,0,0,1,2.088.5,3.469,3.469,0,0,1,1.422,1.413,3.61,3.61,0,0,1,1.413-1.386A4.023,4.023,0,0,1,117.234,15.884Zm9,1.584a3.827,3.827,0,0,1,1.341-1.143,4.064,4.064,0,0,1,1.953-.459,4.361,4.361,0,0,1,2.313.63,4.432,4.432,0,0,1,1.638,1.791,5.757,5.757,0,0,1,.6,2.691,5.867,5.867,0,0,1-.6,2.709,4.535,4.535,0,0,1-1.638,1.827,4.27,4.27,0,0,1-2.313.648,4.024,4.024,0,0,1-1.935-.45,4.151,4.151,0,0,1-1.359-1.134v6.174h-2.52V16.028h2.52Zm5.274,3.51a3.13,3.13,0,0,0-.369-1.557,2.555,2.555,0,0,0-.972-1,2.6,2.6,0,0,0-1.305-.342,2.517,2.517,0,0,0-1.287.351,2.605,2.605,0,0,0-.972,1.017,3.508,3.508,0,0,0,0,3.132,2.605,2.605,0,0,0,.972,1.017,2.54,2.54,0,0,0,2.592-.009,2.672,2.672,0,0,0,.972-1.026A3.22,3.22,0,0,0,131.508,20.978Zm8.838,5.184a5.252,5.252,0,0,1-2.592-.639,4.6,4.6,0,0,1-1.809-1.809,5.42,5.42,0,0,1-.657-2.7,5.306,5.306,0,0,1,.675-2.7,4.691,4.691,0,0,1,1.845-1.809,5.65,5.65,0,0,1,5.22,0,4.691,4.691,0,0,1,1.845,1.809,5.306,5.306,0,0,1,.675,2.7,5.2,5.2,0,0,1-.693,2.7,4.8,4.8,0,0,1-1.872,1.809A5.444,5.444,0,0,1,140.346,26.162Zm0-2.2a2.621,2.621,0,0,0,1.287-.333,2.42,2.42,0,0,0,.963-1,3.366,3.366,0,0,0,.36-1.62,3,3,0,0,0-.747-2.187,2.456,2.456,0,0,0-1.827-.765,2.4,2.4,0,0,0-1.809.765,3.047,3.047,0,0,0-.729,2.187,3.1,3.1,0,0,0,.711,2.187A2.341,2.341,0,0,0,140.346,23.966Zm12.582-8.082a3.844,3.844,0,0,1,2.88,1.125,4.307,4.307,0,0,1,1.1,3.141V26h-2.52V20.492a2.586,2.586,0,0,0-.594-1.827,2.1,2.1,0,0,0-1.62-.639,2.156,2.156,0,0,0-1.647.639,2.561,2.561,0,0,0-.6,1.827V26H147.4V16.028h2.52V17.27a3.482,3.482,0,0,1,1.287-1.017A3.981,3.981,0,0,1,152.928,15.884ZM168.57,20.8a5.948,5.948,0,0,1-.072.972h-7.29a2.479,2.479,0,0,0,.756,1.692,2.331,2.331,0,0,0,1.638.612,2.058,2.058,0,0,0,2-1.206h2.718a4.542,4.542,0,0,1-1.656,2.367,4.835,4.835,0,0,1-3.006.927,5.2,5.2,0,0,1-2.583-.639,4.5,4.5,0,0,1-1.782-1.809,5.543,5.543,0,0,1-.639-2.7,5.646,5.646,0,0,1,.63-2.718,4.4,4.4,0,0,1,1.764-1.8,5.664,5.664,0,0,1,5.157-.018,4.307,4.307,0,0,1,1.746,1.737A5.257,5.257,0,0,1,168.57,20.8Zm-2.61-.72a2,2,0,0,0-.7-1.557,2.487,2.487,0,0,0-1.674-.585,2.287,2.287,0,0,0-1.575.567,2.493,2.493,0,0,0-.783,1.575Zm9.972-4.194a3.844,3.844,0,0,1,2.88,1.125,4.307,4.307,0,0,1,1.1,3.141V26h-2.52V20.492a2.586,2.586,0,0,0-.594-1.827,2.1,2.1,0,0,0-1.62-.639,2.156,2.156,0,0,0-1.647.639,2.561,2.561,0,0,0-.6,1.827V26h-2.52V16.028h2.52V17.27a3.482,3.482,0,0,1,1.287-1.017A3.981,3.981,0,0,1,175.932,15.884Zm9.306,2.214v4.824a.953.953,0,0,0,.243.729,1.194,1.194,0,0,0,.819.225h1.17V26h-1.584q-3.186,0-3.186-3.1V18.1h-1.188v-2.07H182.7V13.562h2.538v2.466h2.232V18.1Z" transform="translate(131 510)"/><text transform="translate(79 533)" fill="#2befb3" font-size="50" font-family="Poppins-SemiBold, Poppins" font-weight="600"><tspan x="0" y="0">4</tspan></text></g></svg>