<svg xmlns="http://www.w3.org/2000/svg" width="204" height="45" viewBox="0 0 204 45"><g transform="translate(-170 -235)"><rect width="204" height="45" rx="5" transform="translate(170 235)" fill="#404eed"/><g transform="translate(45 2.5)"><path d="M4.148-11.628a4.9,4.9,0,0,1,2.328.528A3.772,3.772,0,0,1,8.018-9.618a4.354,4.354,0,0,1,.546,2.2,4.363,4.363,0,0,1-.546,2.2A3.752,3.752,0,0,1,6.47-3.732,4.909,4.909,0,0,1,4.148-3.2H.992v-8.424ZM4.016-4.98a2.477,2.477,0,0,0,1.812-.636,2.408,2.408,0,0,0,.648-1.8,2.45,2.45,0,0,0-.648-1.812,2.45,2.45,0,0,0-1.812-.648H3.044v4.9ZM10.748-10.6a1.244,1.244,0,0,1-.882-.318,1.03,1.03,0,0,1-.342-.786,1.044,1.044,0,0,1,.342-.8,1.244,1.244,0,0,1,.882-.318,1.227,1.227,0,0,1,.87.318,1.044,1.044,0,0,1,.342.8,1.03,1.03,0,0,1-.342.786A1.227,1.227,0,0,1,10.748-10.6Zm1.02.7v6.7H9.716V-9.9ZM15.98-3.108a3.849,3.849,0,0,1-1.56-.3,2.664,2.664,0,0,1-1.08-.822A2.162,2.162,0,0,1,12.9-5.4h2.028a.78.78,0,0,0,.324.564,1.146,1.146,0,0,0,.708.216,1.011,1.011,0,0,0,.594-.15.459.459,0,0,0,.21-.39.45.45,0,0,0-.3-.426,6.06,6.06,0,0,0-.972-.306,9.125,9.125,0,0,1-1.2-.354,2.073,2.073,0,0,1-.828-.588,1.6,1.6,0,0,1-.348-1.086,1.844,1.844,0,0,1,.318-1.05,2.141,2.141,0,0,1,.936-.75A3.584,3.584,0,0,1,15.836-10a2.947,2.947,0,0,1,1.986.624,2.428,2.428,0,0,1,.834,1.656h-1.9a.817.817,0,0,0-.306-.552,1.061,1.061,0,0,0-.678-.2.937.937,0,0,0-.552.138.441.441,0,0,0-.192.378.461.461,0,0,0,.306.432,4.9,4.9,0,0,0,.954.288,10.437,10.437,0,0,1,1.212.378,2.091,2.091,0,0,1,.822.6,1.7,1.7,0,0,1,.366,1.11,1.762,1.762,0,0,1-.33,1.05,2.183,2.183,0,0,1-.948.726A3.626,3.626,0,0,1,15.98-3.108Zm3.564-3.444a3.747,3.747,0,0,1,.426-1.824,2.959,2.959,0,0,1,1.188-1.2A3.557,3.557,0,0,1,22.9-10a3.32,3.32,0,0,1,2.106.66,3.114,3.114,0,0,1,1.11,1.86H23.936a1.051,1.051,0,0,0-1.068-.768,1.076,1.076,0,0,0-.9.438,2.026,2.026,0,0,0-.336,1.254A2.026,2.026,0,0,0,21.968-5.3a1.076,1.076,0,0,0,.9.438,1.051,1.051,0,0,0,1.068-.768H26.12A3.144,3.144,0,0,1,25-3.78a3.286,3.286,0,0,1-2.1.672,3.557,3.557,0,0,1-1.746-.42,2.959,2.959,0,0,1-1.188-1.2A3.747,3.747,0,0,1,19.544-6.552ZM30.26-3.108a3.7,3.7,0,0,1-1.77-.42,3.075,3.075,0,0,1-1.236-1.2,3.586,3.586,0,0,1-.45-1.824A3.557,3.557,0,0,1,27.26-8.37a3.094,3.094,0,0,1,1.248-1.206A3.731,3.731,0,0,1,30.284-10a3.731,3.731,0,0,1,1.776.42A3.094,3.094,0,0,1,33.308-8.37a3.557,3.557,0,0,1,.456,1.818A3.521,3.521,0,0,1,33.3-4.734a3.124,3.124,0,0,1-1.26,1.206A3.767,3.767,0,0,1,30.26-3.108Zm0-1.776a1.337,1.337,0,0,0,1-.432,1.716,1.716,0,0,0,.414-1.236,1.748,1.748,0,0,0-.4-1.236,1.3,1.3,0,0,0-.99-.432,1.3,1.3,0,0,0-1,.426,1.761,1.761,0,0,0-.4,1.242,1.783,1.783,0,0,0,.39,1.236A1.262,1.262,0,0,0,30.26-4.884Zm6.648-3.9a2.707,2.707,0,0,1,.9-.87,2.321,2.321,0,0,1,1.2-.318V-7.8h-.564a1.729,1.729,0,0,0-1.152.33,1.466,1.466,0,0,0-.384,1.158V-3.2H34.856V-9.9h2.052Zm2.676,2.22a4,4,0,0,1,.39-1.812,2.909,2.909,0,0,1,1.062-1.2,2.773,2.773,0,0,1,1.5-.42,2.635,2.635,0,0,1,1.206.276,2.2,2.2,0,0,1,.858.744v-3.108h2.052V-3.2H44.6v-.96a2.09,2.09,0,0,1-.822.768,2.577,2.577,0,0,1-1.242.288,2.743,2.743,0,0,1-1.5-.426,2.944,2.944,0,0,1-1.062-1.212A4.04,4.04,0,0,1,39.584-6.564Zm5.016.012a1.678,1.678,0,0,0-.426-1.212,1.384,1.384,0,0,0-1.038-.444A1.393,1.393,0,0,0,42.1-7.77a1.656,1.656,0,0,0-.426,1.206A1.7,1.7,0,0,0,42.1-5.346a1.375,1.375,0,0,0,1.038.45,1.384,1.384,0,0,0,1.038-.444A1.678,1.678,0,0,0,44.6-6.552Z" transform="translate(218.252 263.079)" fill="#fff"/><path d="M-4385.247-947h0a6.924,6.924,0,0,1-5.751-2.682,22.58,22.58,0,0,1,2.775-10.432,9.545,9.545,0,0,1,5.284-1.886h.058l.208.2a11.044,11.044,0,0,0-4.934,2.284.711.711,0,0,0,.12-.054,17.456,17.456,0,0,1,7.427-1.664,17.715,17.715,0,0,1,7.764,1.816,12.67,12.67,0,0,0-4.726-2.284l.281-.272a9.439,9.439,0,0,1,5.264,1.872,22.672,22.672,0,0,1,2.79,10.43c-.037,0-.1.066-.206.172a7.8,7.8,0,0,1-5.739,2.394.049.049,0,0,1-.015-.015c-.225-.253-.792-.9-1.208-1.472a6.263,6.263,0,0,0,3.388-2.082,13,13,0,0,1-6.957,2.112,19.152,19.152,0,0,1-7.086-1.616.106.106,0,0,1-.084-.039l-.006-.013-.006-.006a.119.119,0,0,0-.085-.039h-.09c-.123-.078-.31-.191-.5-.291l-.01-.005a6.066,6.066,0,0,0,3.288,2.086c-.511.575-1.031,1.227-1.23,1.48l-.006.008Zm8.839-8.442,0,.006a1.973,1.973,0,0,0-1.947,1.986,1.97,1.97,0,0,0,1.952,1.983,1.973,1.973,0,0,0,1.95-1.991A1.969,1.969,0,0,0-4376.408-955.443Zm-6.981,0-.006,0h0a1.972,1.972,0,0,0-1.95,1.987,1.97,1.97,0,0,0,1.952,1.983,1.974,1.974,0,0,0,1.952-1.991A1.968,1.968,0,0,0-4383.389-955.443Z" transform="translate(4581 1209.5)" fill="#fff"/></g></g></svg>