<svg xmlns="http://www.w3.org/2000/svg" width="204" height="45" viewBox="0 0 204 45"><g transform="translate(-170 -235)"><rect width="204" height="45" rx="5" transform="translate(170 235)" fill="#0b8"/><g transform="translate(172.38 249.5)"><g transform="translate(44.62)"><path d="M55.631,0H54.253V4.662c0,.328-.331.489-.588.078l-.91-1.456-.91,1.456c-.258.409-.588.249-.588-.078V0H46.64a2.025,2.025,0,0,0-2.02,2.025V13.98A2.025,2.025,0,0,0,46.64,16h8.993a.932.932,0,0,0,.928-.928V.93A.932.932,0,0,0,55.631,0ZM55.8,13.6l-8.774.011a.384.384,0,0,0,0,.766H55.8l0,.706a.155.155,0,0,1-.158.158h-9a1.251,1.251,0,1,1,0-2.5h9a.162.162,0,0,1,.16.16Z" transform="translate(-47.62)" fill="#fff"/></g><text transform="translate(61.62 12.5)" fill="#fff" font-size="12" font-family="Poppins-Bold, Poppins" font-weight="700"><tspan x="0" y="0">Documentation</tspan></text></g></g></svg>