<svg xmlns="http://www.w3.org/2000/svg" width="204" height="45" viewBox="0 0 204 45"><g transform="translate(-170 -235)"><rect width="204" height="45" fill="#292222" rx="5" transform="translate(170 235)"/><g><g><g><path fill="#fff" d="M361.691,205.829a1.324,1.324,0,1,0,1.324,1.324A1.326,1.326,0,0,0,361.691,205.829Z" transform="translate(219 157.014) translate(17.685 98.524) translate(0 0) translate(-360.367 -205.829)"/></g></g><g><g><path fill="#fff" d="M25.053,103.811l-1.415-7.685a3.829,3.829,0,0,0-3.763-3.14h-2.6a.736.736,0,0,0-.482.179l-1.5,1.293H9.827l-1.5-1.293a.736.736,0,0,0-.482-.179h-2.6a3.829,3.829,0,0,0-3.763,3.14L.074,103.811A4.368,4.368,0,0,0,7.81,107.3l1.616-2.072H15.7l1.616,2.072a4.367,4.367,0,0,0,7.736-3.492ZM8.186,100.584H7.119v1.067a.736.736,0,1,1-1.472,0v-1.067H4.58a.736.736,0,1,1,0-1.472H5.647V98.045a.736.736,0,1,1,1.472,0v1.067H8.186a.736.736,0,1,1,0,1.472Zm10.824,2.06a2.8,2.8,0,1,1,2.8-2.8A2.8,2.8,0,0,1,19.009,102.644Z" transform="translate(219 157.014) translate(0 92.986) translate(0 0) translate(0 -92.986)"/></g></g><text fill="#fff" font-family="Poppins-Bold, Poppins" font-size="12" font-weight="700" transform="translate(219 157.014) translate(33.623 104.986)"><tspan x="0" y="0">Playground</tspan></text></g></g></svg>