<svg xmlns="http://www.w3.org/2000/svg" xmlns:xlink="http://www.w3.org/1999/xlink" width="413" height="193" viewBox="0 0 413 193">
  <defs>
    <clipPath id="clip-path">
      <rect id="Rectángulo_38" data-name="Rectángulo 38" width="261" height="158" transform="translate(36 27)"/>
    </clipPath>
  </defs>
  <g id="h3" transform="translate(-408 -177.178)">
    <rect id="Rectángulo_29" data-name="Rectángulo 29" width="413" height="170" rx="10" transform="translate(408 200.178)" fill="#fff"/>
    <g id="persona" transform="translate(441 125.178)">
      <g id="Grupo_55" data-name="Grupo 55" transform="translate(4 52)">
        <rect id="Rectángulo_37" data-name="Rectángulo 37" width="339" height="185" fill="none"/>
        <g id="Grupo_53" data-name="Grupo 53" clip-path="url(#clip-path)">
          <g id="waving_man_wave_man_person" transform="translate(56.826 34.423)">
            <g id="Group" transform="translate(0 0)">
              <g id="Path-4" transform="translate(107.648 1.602)">
                <path id="Trazado_16" data-name="Trazado 16" d="M0,0V43.974l32.28,7.934V7.934Z" fill="#edeeef"/>
              </g>
              <g id="Oval" transform="translate(125.02 26.808)">
                <circle id="Elipse_2" data-name="Elipse 2" cx="0.863" cy="0.863" r="0.863" transform="translate(0 0)"/>
              </g>
              <g id="Oval-2" transform="translate(111.763 26.808)">
                <circle id="Elipse_3" data-name="Elipse 3" cx="0.863" cy="0.863" r="0.863" transform="translate(0 0)"/>
              </g>
              <g id="Path-5" transform="translate(109.852 19.518)">
                <path id="Trazado_17" data-name="Trazado 17" d="M6.664,13.3V0H0" fill="none" stroke="#000" stroke-linecap="round" stroke-linejoin="round" stroke-miterlimit="10" stroke-width="1.5"/>
              </g>
              <g id="Path-6" transform="translate(120.845 19.52)">
                <path id="Trazado_18" data-name="Trazado 18" d="M6.663.6H0" transform="translate(0 -0.6)" fill="none" stroke="#000" stroke-linecap="round" stroke-linejoin="round" stroke-miterlimit="10" stroke-width="1.5"/>
              </g>
              <g id="Path-7" transform="translate(137.802 24.071)">
                <path id="Trazado_19" data-name="Trazado 19" d="M0,2.263V6.882A4.533,4.533,0,0,0,4.511,2.37q0-.208-.019-.41C4.24-.842,0-.55,0,2.263Z" transform="translate(0 0)" fill="#edeeef"/>
              </g>
              <g id="Path-8" transform="translate(137.802 26.441)">
                <path id="Trazado_20" data-name="Trazado 20" d="M0,4.511A4.533,4.533,0,0,0,4.511,0" fill="none" stroke="#000" stroke-linecap="round" stroke-linejoin="round" stroke-miterlimit="10" stroke-width="1.5"/>
              </g>
              <g id="Path-9" transform="translate(119.43 31.533)">
                <path id="Trazado_21" data-name="Trazado 21" d="M0,4.566A4.588,4.588,0,0,0,4.566,0" fill="none" stroke="#ff6498" stroke-linecap="round" stroke-linejoin="round" stroke-miterlimit="10" stroke-width="1.5"/>
              </g>
              <g id="Path-10" transform="translate(107.648 45.576)">
                <path id="Trazado_22" data-name="Trazado 22" d="M0,0,32.28,7.934" fill="none" stroke="#000" stroke-linecap="round" stroke-linejoin="round" stroke-miterlimit="10" stroke-width="1.5"/>
              </g>
              <g id="Path-11" transform="translate(116.515 32.83)">
                <path id="Trazado_23" data-name="Trazado 23" d="M0,0,2.914.716" fill="none" stroke="#000" stroke-linecap="round" stroke-linejoin="round" stroke-miterlimit="10" stroke-width="1.5"/>
              </g>
              <g id="Path-12" transform="translate(70.917 56.722)">
                <path id="Trazado_24" data-name="Trazado 24" d="M99.856,43.45v70.489L0,138.485V59.977A60.628,60.628,0,0,1,46.037,1.257,43.45,43.45,0,0,1,99.858,43.45Z" transform="translate(0 -0.001)" fill="#edeeef"/>
              </g>
              <g id="Path-14" transform="translate(106.802 11.688)">
                <path id="Trazado_25" data-name="Trazado 25" d="M31,14.646A13.025,13.025,0,0,1,23.125,0H0" fill="none" stroke="#000" stroke-linecap="round" stroke-linejoin="round" stroke-miterlimit="10" stroke-width="1.5"/>
              </g>
              <g id="Path-15" transform="translate(102.165)">
                <path id="Trazado_26" data-name="Trazado 26" d="M39.759,24.955S50.074-.89,26.24.023.884,1.342.073,5.5s5.41,8.722,5.41,8.722" transform="translate(0 0)" fill="none" stroke="#000" stroke-linecap="round" stroke-linejoin="round" stroke-miterlimit="10" stroke-width="1.5"/>
              </g>
              <g id="Path-16" transform="translate(127.909 59.374)">
                <path id="Trazado_27" data-name="Trazado 27" d="M14.407,0S77.073,21.382,86.812,81.017s-65.727,106.5-65.727,106.5L0,157.695,33.864,96.232,0,59.112" fill="none" stroke="#000" stroke-linecap="round" stroke-linejoin="round" stroke-miterlimit="10" stroke-width="1.5"/>
              </g>
              <g id="Path-18" transform="translate(0 50.546)">
                <path id="Trazado_28" data-name="Trazado 28" d="M91.733,20.5S48.587,42.99,42.5,85.589L27.9,30.211s6.085-12.171,0-13.388c0,0,.609-25.283-15.822-13.859S-17.131,168.348,66.237,158.612" transform="translate(-0.001 0)" fill="none" stroke="#000" stroke-linecap="round" stroke-linejoin="round" stroke-miterlimit="10" stroke-width="1.5"/>
              </g>
            </g>
          </g>
        </g>
        <g id="Grupo_54" data-name="Grupo 54" transform="translate(53.693 185)">
          <path id="Trazado_29" data-name="Trazado 29" d="M208,401H433.934" transform="translate(-208 -401)" fill="none" stroke="#000" stroke-linecap="round" stroke-linejoin="round" stroke-miterlimit="1.5" stroke-width="1.5" fill-rule="evenodd"/>
        </g>
      </g>
    </g>
  </g>
</svg>
