<svg xmlns="http://www.w3.org/2000/svg" width="413" height="172" viewBox="0 0 413 172">
  <g id="h4" transform="translate(9 -199.178)">
    <rect id="Rectángulo_10" data-name="Rectángulo 10" width="413" height="172" rx="10" transform="translate(-9 199.178)" fill="#fff"/>
    <g id="logo-black" transform="translate(-323.47 -63.337)">
      <g id="isotipo" transform="translate(322.214 350.269) rotate(-45)">
        <path id="Trazado_8" data-name="Trazado 8" d="M15.671,16.956a16.884,16.884,0,0,1-2.288-.156L2.468,5.887c1.156.239,2.341.428,3.52.562L16.474,16.936C16.21,16.95,15.938,16.956,15.671,16.956Zm3.212-.309L8.909,6.672c.511.02,1.033.03,1.552.03.469,0,.943-.008,1.41-.025l9.339,9.339a16.784,16.784,0,0,1-2.328.63Zm-9.119-.761a16.609,16.609,0,0,1-5.932-3.832A16.617,16.617,0,0,1,0,6.12l9.765,9.764Zm13.347-.667L14.4,6.508c.87-.086,1.746-.2,2.61-.349l7.973,7.973a16.675,16.675,0,0,1-1.872,1.087Zm3.408-2.249L19.263,5.713c.783-.179,1.572-.386,2.343-.614l6.416,6.416c-.163.18-.338.36-.514.537-.318.318-.652.626-.991.916Zm2.719-2.936h0L23.643,4.438c.711-.253,1.427-.532,2.128-.83L30.382,8.22a16.7,16.7,0,0,1-1.142,1.813Zm2.005-3.652h0L27.626,2.765c.652-.318,1.3-.658,1.943-1.015l2.383,2.383a16.757,16.757,0,0,1-.707,2.248Zm1.1-4.562h0L31.265.747c.381-.239.768-.489,1.148-.747a16.912,16.912,0,0,1-.075,1.819Z" transform="translate(26.58 69.957)"/>
        <path id="Trazado_7" data-name="Trazado 7" d="M37.225,74.447a37.5,37.5,0,0,1-7.5-.756,37.02,37.02,0,0,1-13.31-5.6A37.334,37.334,0,0,1,2.925,51.714,37.03,37.03,0,0,1,.756,44.727a37.6,37.6,0,0,1,0-15.016,37.017,37.017,0,0,1,5.6-13.3A37.335,37.335,0,0,1,22.734,2.925,37.036,37.036,0,0,1,29.721.756a37.554,37.554,0,0,1,16.424.32A37.109,37.109,0,0,1,61.394,8.914a37.484,37.484,0,0,1,5.817,6.252,23.512,23.512,0,0,0,0,44.118A37.4,37.4,0,0,1,54.29,70.315a37.056,37.056,0,0,1-17.065,4.132Z" transform="translate(0 0)"/>
        <path id="Trazado_6" data-name="Trazado 6" d="M12.316,40.061H29.606a21.021,21.021,0,0,1-17.291,0ZM8.307,37.672a21.1,21.1,0,0,1-2.862-2.619H36.476a21.1,21.1,0,0,1-2.862,2.619ZM3.569,32.664a20.955,20.955,0,0,1-1.5-2.619H39.855a20.944,20.944,0,0,1-1.5,2.619ZM1.092,27.657a20.786,20.786,0,0,1-.7-2.619H41.525a20.8,20.8,0,0,1-.7,2.619ZM.067,22.649Q0,21.814,0,20.961q0-.468.02-.93H41.9q.02.462.02.93,0,.852-.067,1.688Zm.194-5.008a20.833,20.833,0,0,1,.592-2.618H41.068a20.848,20.848,0,0,1,.592,2.618Zm1.458-5.008a20.9,20.9,0,0,1,1.359-2.618H38.837A20.938,20.938,0,0,1,40.2,12.634ZM4.788,7.626A21.087,21.087,0,0,1,7.364,5.008H34.557a21.077,21.077,0,0,1,2.576,2.618Zm6.021-5.008a20.994,20.994,0,0,1,20.3,0Z" transform="translate(54.374 16.067)"/>
      </g>
      <path id="Trazado_2" data-name="Trazado 2" d="M30.309,53.9H13.187l-2.833,8.192H1.3L16.759,19.035H26.8L42.258,62.087H33.143ZM27.969,47,21.748,29.013,15.528,47ZM58.087,35.049V51.555a3.262,3.262,0,0,0,.831,2.494,4.085,4.085,0,0,0,2.8.77h4v7.268H60.3q-10.9,0-10.9-10.594V35.049H45.338V27.966H49.4V19.528h8.684v8.438h7.637v7.083ZM87.1,62.642a17.973,17.973,0,0,1-8.869-2.186,15.744,15.744,0,0,1-6.19-6.19,18.548,18.548,0,0,1-2.248-9.239,18.154,18.154,0,0,1,2.31-9.239,16.05,16.05,0,0,1,6.313-6.19,19.332,19.332,0,0,1,17.861,0,16.05,16.05,0,0,1,6.313,6.19,18.154,18.154,0,0,1,2.31,9.239,17.783,17.783,0,0,1-2.371,9.239,16.42,16.42,0,0,1-6.405,6.19A18.626,18.626,0,0,1,87.1,62.642Zm0-7.514a8.97,8.97,0,0,0,4.4-1.139,8.281,8.281,0,0,0,3.3-3.418,11.519,11.519,0,0,0,1.232-5.543q0-4.866-2.556-7.483a8.4,8.4,0,0,0-6.251-2.618,8.2,8.2,0,0,0-6.19,2.618q-2.494,2.618-2.494,7.483t2.433,7.483A8.01,8.01,0,0,0,87.1,55.128Zm66.518-27.654a13.7,13.7,0,0,1,10.132,3.849Q167.6,35.172,167.6,42.07V62.087h-8.623V43.241a8.525,8.525,0,0,0-2.033-6.128,7.308,7.308,0,0,0-5.543-2.125,7.41,7.41,0,0,0-5.574,2.125,8.445,8.445,0,0,0-2.063,6.128V62.087h-8.623V43.241a8.525,8.525,0,0,0-2.033-6.128,7.308,7.308,0,0,0-5.543-2.125,7.491,7.491,0,0,0-5.636,2.125,8.446,8.446,0,0,0-2.063,6.128V62.087H111.24V27.966h8.623v4.127a11.476,11.476,0,0,1,4.281-3.388,13.354,13.354,0,0,1,5.759-1.232,14.813,14.813,0,0,1,7.145,1.694A11.87,11.87,0,0,1,141.912,34a12.353,12.353,0,0,1,4.835-4.743A13.765,13.765,0,0,1,153.615,27.473ZM180.16,23.9a5.254,5.254,0,0,1-3.788-1.447,4.789,4.789,0,0,1-1.509-3.6,4.789,4.789,0,0,1,1.509-3.6,5.68,5.68,0,0,1,7.576,0,4.789,4.789,0,0,1,1.509,3.6,4.789,4.789,0,0,1-1.509,3.6A5.254,5.254,0,0,1,180.16,23.9Zm4.25,4.065V62.087h-8.623V27.966Zm6.282,17.061a19.139,19.139,0,0,1,2.156-9.269,15.408,15.408,0,0,1,5.974-6.159,17.286,17.286,0,0,1,8.746-2.186,16.815,16.815,0,0,1,10.5,3.172,15.429,15.429,0,0,1,5.574,8.9h-9.3A6.8,6.8,0,0,0,211.849,36a7.242,7.242,0,0,0-4.342-1.263,7.111,7.111,0,0,0-5.851,2.679Q199.5,40.1,199.5,45.027q0,4.866,2.156,7.545a7.111,7.111,0,0,0,5.851,2.679q5.235,0,6.837-4.681h9.3a15.738,15.738,0,0,1-5.6,8.808,16.517,16.517,0,0,1-10.47,3.264,17.286,17.286,0,0,1-8.746-2.186,15.408,15.408,0,0,1-5.974-6.159A19.139,19.139,0,0,1,190.692,45.027Zm54.447,17.615a17.973,17.973,0,0,1-8.869-2.186,15.744,15.744,0,0,1-6.19-6.19,18.548,18.548,0,0,1-2.248-9.239,18.154,18.154,0,0,1,2.31-9.239,16.05,16.05,0,0,1,6.313-6.19,19.332,19.332,0,0,1,17.861,0,16.05,16.05,0,0,1,6.313,6.19,18.154,18.154,0,0,1,2.31,9.239,17.783,17.783,0,0,1-2.371,9.239,16.42,16.42,0,0,1-6.405,6.19A18.626,18.626,0,0,1,245.139,62.642Zm0-7.514a8.97,8.97,0,0,0,4.4-1.139,8.281,8.281,0,0,0,3.3-3.418,11.519,11.519,0,0,0,1.232-5.543q0-4.866-2.556-7.483a8.4,8.4,0,0,0-6.252-2.618,8.2,8.2,0,0,0-6.19,2.618q-2.494,2.618-2.494,7.483t2.433,7.483A8.01,8.01,0,0,0,245.139,55.128Z" transform="translate(439.275 307.331)"/>
    </g>
  </g>
</svg>
