<svg xmlns="http://www.w3.org/2000/svg" width="830" height="180" viewBox="0 0 830 180"><g transform="translate(9 -189.178)"><rect width="830" height="180" rx="10" transform="translate(-9 189.178)" fill="#fff"/><g transform="translate(-264 -56)"><g transform="translate(322.214 337.454) rotate(-45)"><path d="M12.722,13.765a13.706,13.706,0,0,1-1.857-.127L2,4.779c.939.194,1.9.348,2.858.456l8.513,8.513C13.159,13.76,12.938,13.765,12.722,13.765Zm2.608-.251-8.1-8.1c.414.016.839.024,1.26.024.381,0,.766-.007,1.145-.02L17.219,13a13.625,13.625,0,0,1-1.89.511Zm-7.4-.618A13.483,13.483,0,0,1,3.111,9.785,13.49,13.49,0,0,1,0,4.968L7.927,12.9Zm10.835-.541L11.691,5.284c.706-.07,1.418-.166,2.119-.283l6.472,6.472a13.537,13.537,0,0,1-1.52.883Zm2.766-1.826-5.89-5.89c.636-.146,1.276-.313,1.9-.5l5.209,5.209c-.132.146-.274.293-.417.436-.258.258-.53.508-.8.743Zm2.207-2.384h0L19.193,3.6c.577-.206,1.159-.432,1.728-.674l3.744,3.743a13.559,13.559,0,0,1-.927,1.472ZM25.363,5.18h0L22.427,2.245c.53-.258,1.059-.535,1.577-.824l1.935,1.935a13.6,13.6,0,0,1-.574,1.825Zm.889-3.7h0l-.87-.87c.309-.194.624-.4.932-.606a13.73,13.73,0,0,1-.061,1.477Z" transform="translate(21.578 56.792)"/><path d="M30.219,60.437a30.44,30.44,0,0,1-6.091-.614,30.053,30.053,0,0,1-10.805-4.547A30.308,30.308,0,0,1,2.375,41.982,30.061,30.061,0,0,1,.614,36.31a30.521,30.521,0,0,1,0-12.19,30.051,30.051,0,0,1,4.545-10.8,30.309,30.309,0,0,1,13.3-10.948A30.066,30.066,0,0,1,24.128.614a30.487,30.487,0,0,1,13.333.26A30.125,30.125,0,0,1,49.84,7.237a30.43,30.43,0,0,1,4.722,5.076,19.087,19.087,0,0,0,0,35.815,30.36,30.36,0,0,1-10.489,8.955,30.083,30.083,0,0,1-13.854,3.355Z" transform="translate(0 0)"/><path d="M10,32.522H24.035a17.065,17.065,0,0,1-14.037,0Zm-3.255-1.94A17.131,17.131,0,0,1,4.42,28.457H29.612a17.131,17.131,0,0,1-2.323,2.126ZM2.9,26.517a17.012,17.012,0,0,1-1.221-2.126H32.354a17,17,0,0,1-1.221,2.126ZM.887,22.452a16.874,16.874,0,0,1-.565-2.126H33.71a16.885,16.885,0,0,1-.565,2.126ZM.054,18.387Q0,17.709,0,17.016q0-.38.016-.755h34q.016.375.016.755,0,.692-.054,1.371Zm.158-4.065A16.912,16.912,0,0,1,.692,12.2H33.339a16.924,16.924,0,0,1,.48,2.125ZM1.4,10.256A16.963,16.963,0,0,1,2.5,8.131H31.528a17,17,0,0,1,1.1,2.125ZM3.887,6.191A17.119,17.119,0,0,1,5.978,4.065H28.054a17.11,17.11,0,0,1,2.091,2.125ZM8.774,2.125a17.043,17.043,0,0,1,16.484,0Z" transform="translate(44.141 13.043)"/></g><path d="M24.85,46.35H10.95L8.65,53H1.3L13.85,18.05H22L34.55,53h-7.4Zm-1.9-5.6L17.9,26.15l-5.05,14.6Zm24.45-9.7v13.4a2.648,2.648,0,0,0,.675,2.025,3.316,3.316,0,0,0,2.275.625H53.6V53H49.2q-8.85,0-8.85-8.6V31.05h-3.3V25.3h3.3V18.45H47.4V25.3h6.2v5.75Zm23.55,22.4a14.59,14.59,0,0,1-7.2-1.775,12.781,12.781,0,0,1-5.025-5.025,15.057,15.057,0,0,1-1.825-7.5,14.737,14.737,0,0,1,1.875-7.5A13.03,13.03,0,0,1,63.9,26.625a15.694,15.694,0,0,1,14.5,0,13.03,13.03,0,0,1,5.125,5.025,14.737,14.737,0,0,1,1.875,7.5,14.437,14.437,0,0,1-1.925,7.5,13.33,13.33,0,0,1-5.2,5.025A15.121,15.121,0,0,1,70.95,53.45Zm0-6.1a7.282,7.282,0,0,0,3.575-.925A6.722,6.722,0,0,0,77.2,43.65a9.352,9.352,0,0,0,1-4.5,8.338,8.338,0,0,0-2.075-6.075A6.821,6.821,0,0,0,71.05,30.95a6.661,6.661,0,0,0-5.025,2.125A8.464,8.464,0,0,0,64,39.15a8.6,8.6,0,0,0,1.975,6.075A6.5,6.5,0,0,0,70.95,47.35Zm54-22.45a11.121,11.121,0,0,1,8.225,3.125Q136.3,31.15,136.3,36.75V53h-7V37.7a6.92,6.92,0,0,0-1.65-4.975A5.933,5.933,0,0,0,123.15,31a6.016,6.016,0,0,0-4.525,1.725A6.856,6.856,0,0,0,116.95,37.7V53h-7V37.7a6.92,6.92,0,0,0-1.65-4.975A5.933,5.933,0,0,0,103.8,31a6.081,6.081,0,0,0-4.575,1.725A6.856,6.856,0,0,0,97.55,37.7V53h-7V25.3h7v3.35a9.316,9.316,0,0,1,3.475-2.75,10.841,10.841,0,0,1,4.675-1,12.025,12.025,0,0,1,5.8,1.375,9.636,9.636,0,0,1,3.95,3.925,10.028,10.028,0,0,1,3.925-3.85A11.174,11.174,0,0,1,124.95,24.9ZM146.5,22a4.265,4.265,0,0,1-3.075-1.175A3.888,3.888,0,0,1,142.2,17.9a3.888,3.888,0,0,1,1.225-2.925,4.611,4.611,0,0,1,6.15,0A3.888,3.888,0,0,1,150.8,17.9a3.888,3.888,0,0,1-1.225,2.925A4.265,4.265,0,0,1,146.5,22Zm3.45,3.3V53h-7V25.3Zm5.1,13.85a15.537,15.537,0,0,1,1.75-7.525,12.509,12.509,0,0,1,4.85-5,14.033,14.033,0,0,1,7.1-1.775,13.65,13.65,0,0,1,8.525,2.575A12.525,12.525,0,0,1,181.8,34.65h-7.55a5.522,5.522,0,0,0-2.025-2.825A5.879,5.879,0,0,0,168.7,30.8a5.773,5.773,0,0,0-4.75,2.175,9.627,9.627,0,0,0-1.75,6.175,9.538,9.538,0,0,0,1.75,6.125,5.773,5.773,0,0,0,4.75,2.175,5.309,5.309,0,0,0,5.55-3.8h7.55a12.777,12.777,0,0,1-4.55,7.15,13.408,13.408,0,0,1-8.5,2.65,14.033,14.033,0,0,1-7.1-1.775,12.509,12.509,0,0,1-4.85-5A15.537,15.537,0,0,1,155.05,39.15Zm44.2,14.3a14.59,14.59,0,0,1-7.2-1.775,12.781,12.781,0,0,1-5.025-5.025,15.057,15.057,0,0,1-1.825-7.5,14.737,14.737,0,0,1,1.875-7.5,13.03,13.03,0,0,1,5.125-5.025,15.694,15.694,0,0,1,14.5,0,13.03,13.03,0,0,1,5.125,5.025,14.737,14.737,0,0,1,1.875,7.5,14.437,14.437,0,0,1-1.925,7.5,13.33,13.33,0,0,1-5.2,5.025A15.121,15.121,0,0,1,199.25,53.45Zm0-6.1a7.282,7.282,0,0,0,3.575-.925A6.722,6.722,0,0,0,205.5,43.65a9.351,9.351,0,0,0,1-4.5,8.338,8.338,0,0,0-2.075-6.075,6.821,6.821,0,0,0-5.075-2.125,6.661,6.661,0,0,0-5.025,2.125A8.464,8.464,0,0,0,192.3,39.15a8.6,8.6,0,0,0,1.975,6.075A6.5,6.5,0,0,0,199.25,47.35Z" transform="translate(417 300)"/></g><path d="M-1076,203.178a8,8,0,0,1-8-8v-51a8,8,0,0,1,8-8h183l15-15h66a8,8,0,0,1,8,8v66a8,8,0,0,1-8,8Z" transform="translate(1532 110)" fill="#120042"/><g transform="translate(50 4.178)"><path d="M1.362,0h2.1V-6.785a2.664,2.664,0,0,1,.325-.439,2.155,2.155,0,0,1,.4-.343,2.22,2.22,0,0,1,.606-.286,2.477,2.477,0,0,1,.721-.1,3.067,3.067,0,0,1,.826.1,1.469,1.469,0,0,1,.615.338,1.487,1.487,0,0,1,.387.633,3.15,3.15,0,0,1,.132.984V0h2.1V-5.933a5.41,5.41,0,0,0-.237-1.709,3.113,3.113,0,0,0-.668-1.165,2.557,2.557,0,0,0-1.037-.668,4.044,4.044,0,0,0-1.336-.211,3.482,3.482,0,0,0-1.055.158,3.455,3.455,0,0,0-.923.448,3.712,3.712,0,0,0-.5.417,3.928,3.928,0,0,0-.426.505L3.261-9.51h-1.9ZM12.182,3.656h2.1V-.861a3.322,3.322,0,0,0,.36.343,3.123,3.123,0,0,0,.4.281,3.141,3.141,0,0,0,.787.308,3.9,3.9,0,0,0,.936.105A3.337,3.337,0,0,0,18.36-.193a3.42,3.42,0,0,0,1.169-1.02,4.556,4.556,0,0,0,.716-1.529,7.271,7.271,0,0,0,.242-1.916v-.185a7.374,7.374,0,0,0-.246-1.964,4.721,4.721,0,0,0-.712-1.534,3.272,3.272,0,0,0-1.173-.993,3.542,3.542,0,0,0-1.613-.352,3.688,3.688,0,0,0-.879.1,3.182,3.182,0,0,0-.756.286,2.8,2.8,0,0,0-.492.334,3.26,3.26,0,0,0-.422.431l-.079-.976H12.182Zm6.205-8.5v.185a5.645,5.645,0,0,1-.123,1.2,3.169,3.169,0,0,1-.4,1.006,1.994,1.994,0,0,1-.681.681,1.921,1.921,0,0,1-1.006.25,2.445,2.445,0,0,1-.659-.083,2.216,2.216,0,0,1-.536-.224,1.938,1.938,0,0,1-.4-.352,2.134,2.134,0,0,1-.3-.448V-6.855a2.4,2.4,0,0,1,.33-.475,1.681,1.681,0,0,1,.444-.352,1.831,1.831,0,0,1,.5-.2,2.5,2.5,0,0,1,.606-.07,1.972,1.972,0,0,1,1.011.246,2.044,2.044,0,0,1,.694.668,3.158,3.158,0,0,1,.391.989A5.5,5.5,0,0,1,18.387-4.843ZM24.161-9.51H22.333V0h1.934V-7.3a1.494,1.494,0,0,1,.119-.237.859.859,0,0,1,.154-.185.725.725,0,0,1,.277-.171,1.124,1.124,0,0,1,.374-.057,1.067,1.067,0,0,1,.347.053.691.691,0,0,1,.268.167.71.71,0,0,1,.171.312,1.744,1.744,0,0,1,.057.479V0h1.9V-7.277a.948.948,0,0,1,.105-.268.793.793,0,0,1,.176-.207.833.833,0,0,1,.264-.149,1.057,1.057,0,0,1,.352-.053,1.148,1.148,0,0,1,.356.053.683.683,0,0,1,.277.167.822.822,0,0,1,.176.321,1.627,1.627,0,0,1,.062.479V0h1.934V-6.917A4.645,4.645,0,0,0,31.478-8.2a2.333,2.333,0,0,0-.435-.866,1.754,1.754,0,0,0-.664-.47,2.229,2.229,0,0,0-.839-.154,2.251,2.251,0,0,0-.646.088,1.965,1.965,0,0,0-.532.246,1.818,1.818,0,0,0-.343.3,2.531,2.531,0,0,0-.281.378,1.837,1.837,0,0,0-.211-.391,1.417,1.417,0,0,0-.281-.294,1.3,1.3,0,0,0-.483-.246,2.338,2.338,0,0,0-.633-.079,2.009,2.009,0,0,0-1.156.325,2.2,2.2,0,0,0-.751.9Zm20.892,0v1.749h2.927V-1.74H45.053V0h7.84V-1.74H50.1V-9.51Zm2.733-2.461a1.049,1.049,0,0,0,.163.584.841.841,0,0,0,.479.347A1.113,1.113,0,0,0,48.99-11a.92.92,0,0,0,.439-.22.938.938,0,0,0,.563-.382.9.9,0,0,0,.132-.672.91.91,0,0,0-.338-.62,1.173,1.173,0,0,0-.769-.242,1.44,1.44,0,0,0-.505.083,1.117,1.117,0,0,0-.382.233,1.06,1.06,0,0,0-.255.374A1.233,1.233,0,0,0,47.786-11.971ZM55.371,0h2.1V-6.785a2.664,2.664,0,0,1,.325-.439,2.155,2.155,0,0,1,.4-.343,2.22,2.22,0,0,1,.606-.286,2.477,2.477,0,0,1,.721-.1,3.067,3.067,0,0,1,.826.1,1.469,1.469,0,0,1,.615.338,1.487,1.487,0,0,1,.387.633,3.15,3.15,0,0,1,.132.984V0h2.1V-5.933a5.41,5.41,0,0,0-.237-1.709,3.113,3.113,0,0,0-.668-1.165,2.557,2.557,0,0,0-1.037-.668A4.044,4.044,0,0,0,60.3-9.686a3.482,3.482,0,0,0-1.055.158,3.455,3.455,0,0,0-.923.448,3.712,3.712,0,0,0-.5.417,3.928,3.928,0,0,0-.426.505L57.27-9.51h-1.9ZM66.656-9.51v1.749h2.927V-1.74H66.656V0H74.5V-1.74H71.7V-9.51Zm2.733-2.461a1.049,1.049,0,0,0,.163.584.841.841,0,0,0,.479.347,1.113,1.113,0,0,0,.563.044.92.92,0,0,0,.439-.22A.938.938,0,0,0,71.6-11.6a.9.9,0,0,0,.132-.672.91.91,0,0,0-.338-.62,1.173,1.173,0,0,0-.769-.242,1.44,1.44,0,0,0-.505.083,1.117,1.117,0,0,0-.382.233,1.06,1.06,0,0,0-.255.374A1.233,1.233,0,0,0,69.39-11.971Zm11.8.141H79.084v2.32h-2.3v1.573h2.3v4.676A4.5,4.5,0,0,0,79.326-1.7,2.794,2.794,0,0,0,80-.633a2.621,2.621,0,0,0,1.033.62,4.219,4.219,0,0,0,1.323.2q.4,0,.8-.04t.769-.11a6.088,6.088,0,0,0,.69-.171,2.456,2.456,0,0,0,.549-.242l-.229-1.45-.391.083q-.233.048-.5.083t-.562.07q-.29.026-.562.026a2.589,2.589,0,0,1-.694-.088,1.3,1.3,0,0,1-.545-.3,1.322,1.322,0,0,1-.356-.558,2.644,2.644,0,0,1-.127-.883V-7.937h3.577V-9.51H81.193Zm26.262,4.72a7.836,7.836,0,0,0-.25-2.3,5.152,5.152,0,0,0-.848-1.775,3.991,3.991,0,0,0-1.415-1.143,4.281,4.281,0,0,0-1.89-.4,4.389,4.389,0,0,0-2.109.514,5.259,5.259,0,0,0-1.661,1.411,7.213,7.213,0,0,0-1.129,2.158,9.343,9.343,0,0,0-.47,2.632,9.376,9.376,0,0,0,.229,2.5A5.146,5.146,0,0,0,98.78-1.6a3.983,3.983,0,0,0,1.525,1.235,5.188,5.188,0,0,0,2.219.435,5,5,0,0,0,.611-.04,4.381,4.381,0,0,0,.637-.127,4.09,4.09,0,0,0,.606-.2,2.588,2.588,0,0,0,.519-.29l-.281-1.116a3.178,3.178,0,0,1-.448.207q-.246.092-.51.163a5.443,5.443,0,0,1-.562.11,3.913,3.913,0,0,1-.545.04,3.859,3.859,0,0,1-1.6-.312,2.828,2.828,0,0,1-1.138-.927,4.066,4.066,0,0,1-.659-1.507,7.923,7.923,0,0,1-.167-2.087,8.515,8.515,0,0,1,.343-2.228,5.6,5.6,0,0,1,.853-1.745,3.771,3.771,0,0,1,1.226-1.1,3.224,3.224,0,0,1,1.586-.391,3.507,3.507,0,0,1,1.446.281,2.676,2.676,0,0,1,1.05.835,3.7,3.7,0,0,1,.624,1.38,7.137,7.137,0,0,1,.167,1.916,9.325,9.325,0,0,1-.079,1.257,4.667,4.667,0,0,1-.237,1,1.988,1.988,0,0,1-.365.664.634.634,0,0,1-.479.242.85.85,0,0,1-.215-.026.306.306,0,0,1-.171-.123.617.617,0,0,1-.114-.272,1.945,1.945,0,0,1-.018-.475l.387-4.544a2.261,2.261,0,0,0-.672-.505,2.3,2.3,0,0,0-1.059-.215,2.432,2.432,0,0,0-1.178.286,2.849,2.849,0,0,0-.923.813,4.393,4.393,0,0,0-.642,1.279,7.748,7.748,0,0,0-.334,1.683A5.554,5.554,0,0,0,100.2-4.68a3.074,3.074,0,0,0,.316,1.024,1.649,1.649,0,0,0,.584.672,1.542,1.542,0,0,0,.848.233,1.671,1.671,0,0,0,.532-.083,1.746,1.746,0,0,0,.47-.242,2.549,2.549,0,0,0,.316-.277,2.374,2.374,0,0,0,.272-.338,1.691,1.691,0,0,0,.193.352,1.675,1.675,0,0,0,.255.281,1.248,1.248,0,0,0,.422.237,1.631,1.631,0,0,0,.519.079,1.721,1.721,0,0,0,1.138-.391,2.957,2.957,0,0,0,.769-1.015,5.737,5.737,0,0,0,.448-1.406A10.119,10.119,0,0,0,107.455-7.11Zm-5.941,1.1a7.127,7.127,0,0,1,.2-1.191,3.383,3.383,0,0,1,.36-.883,1.561,1.561,0,0,1,.536-.558,1.412,1.412,0,0,1,.738-.189,1.109,1.109,0,0,1,.207.018,1,1,0,0,1,.163.044l-.334,3.885-.009.105a1.5,1.5,0,0,1-.176.277,1.9,1.9,0,0,1-.193.207.933.933,0,0,1-.338.2,1.228,1.228,0,0,1-.374.057.589.589,0,0,1-.374-.127.856.856,0,0,1-.259-.391,2.4,2.4,0,0,1-.136-.615A5.162,5.162,0,0,1,101.514-6.012ZM115.453,0H117.6V-.149a3.494,3.494,0,0,1-.268-.883,6.576,6.576,0,0,1-.092-1.156V-6.416a3.25,3.25,0,0,0-.3-1.428,2.8,2.8,0,0,0-.826-1.024,3.7,3.7,0,0,0-1.252-.611,5.673,5.673,0,0,0-1.56-.207,5.231,5.231,0,0,0-1.657.242,3.682,3.682,0,0,0-1.217.655,2.768,2.768,0,0,0-.773.932,2.515,2.515,0,0,0-.272,1.1h2.109a1.319,1.319,0,0,1,.1-.514,1.013,1.013,0,0,1,.312-.409,1.515,1.515,0,0,1,.532-.29,2.411,2.411,0,0,1,.751-.105,2.713,2.713,0,0,1,.839.119,1.779,1.779,0,0,1,.62.338,1.5,1.5,0,0,1,.365.519,1.687,1.687,0,0,1,.127.668v.642h-1.529a7.985,7.985,0,0,0-1.841.193,4.2,4.2,0,0,0-1.367.563,2.645,2.645,0,0,0-.91,1,2.966,2.966,0,0,0-.312,1.384,2.659,2.659,0,0,0,.242,1.129,2.546,2.546,0,0,0,.681.892,3.143,3.143,0,0,0,1.042.593,4.035,4.035,0,0,0,1.349.215,3.926,3.926,0,0,0,.853-.088,3.641,3.641,0,0,0,.738-.246,3.109,3.109,0,0,0,.62-.356,4.028,4.028,0,0,0,.5-.435q.044.272.1.523A1.643,1.643,0,0,0,115.453,0ZM112.9-1.512a2.2,2.2,0,0,1-.7-.1,1.472,1.472,0,0,1-.5-.277,1.147,1.147,0,0,1-.308-.426,1.379,1.379,0,0,1-.105-.541,1.517,1.517,0,0,1,.127-.633,1.261,1.261,0,0,1,.391-.483,2.112,2.112,0,0,1,.8-.365,4.857,4.857,0,0,1,1.187-.127h1.354v1.758a1.7,1.7,0,0,1-.325.439,2.389,2.389,0,0,1-.5.378,2.994,2.994,0,0,1-.646.272A2.7,2.7,0,0,1,112.9-1.512ZM124.4-11.83h-2.109v2.32h-2.3v1.573h2.3v4.676a4.5,4.5,0,0,0,.242,1.564,2.794,2.794,0,0,0,.672,1.063,2.621,2.621,0,0,0,1.033.62,4.219,4.219,0,0,0,1.323.2q.4,0,.8-.04t.769-.11a6.088,6.088,0,0,0,.69-.171,2.456,2.456,0,0,0,.549-.242l-.229-1.45-.391.083q-.233.048-.5.083t-.562.07q-.29.026-.562.026a2.589,2.589,0,0,1-.694-.088,1.3,1.3,0,0,1-.545-.3,1.322,1.322,0,0,1-.356-.558,2.644,2.644,0,0,1-.127-.883V-7.937h3.577V-9.51H124.4Zm6.2,6.987v.185a5.946,5.946,0,0,0,.3,1.925,4.467,4.467,0,0,0,.87,1.529,3.924,3.924,0,0,0,1.389,1.02,4.543,4.543,0,0,0,1.872.369,4.49,4.49,0,0,0,1.859-.369A3.934,3.934,0,0,0,138.27-1.2a4.546,4.546,0,0,0,.861-1.529,5.946,5.946,0,0,0,.3-1.925v-.185a5.957,5.957,0,0,0-.3-1.92A4.539,4.539,0,0,0,138.27-8.3a4.021,4.021,0,0,0-1.393-1.02,4.512,4.512,0,0,0-1.868-.369,4.482,4.482,0,0,0-1.863.369,3.944,3.944,0,0,0-1.38,1.02,4.46,4.46,0,0,0-.87,1.534A5.957,5.957,0,0,0,130.6-4.843Zm2.1.185v-.185a5.137,5.137,0,0,1,.136-1.2,3.037,3.037,0,0,1,.426-1,2.136,2.136,0,0,1,.716-.686,2.007,2.007,0,0,1,1.033-.255,2.025,2.025,0,0,1,1.042.255,2.218,2.218,0,0,1,.725.686,3.364,3.364,0,0,1,.413,1,4.984,4.984,0,0,1,.141,1.2v.185a5.216,5.216,0,0,1-.136,1.213,3.154,3.154,0,0,1-.417,1,2.082,2.082,0,0,1-.721.681,2.041,2.041,0,0,1-1.028.25,2.078,2.078,0,0,1-1.046-.25,2.082,2.082,0,0,1-.721-.681,3.037,3.037,0,0,1-.426-1A5.216,5.216,0,0,1,132.7-4.658ZM142.98-9.51h-1.828V0h1.934V-7.3a1.494,1.494,0,0,1,.119-.237.859.859,0,0,1,.154-.185.725.725,0,0,1,.277-.171,1.124,1.124,0,0,1,.374-.057,1.067,1.067,0,0,1,.347.053.691.691,0,0,1,.268.167.71.71,0,0,1,.171.312,1.744,1.744,0,0,1,.057.479V0h1.9V-7.277a.948.948,0,0,1,.105-.268.793.793,0,0,1,.176-.207A.833.833,0,0,1,147.3-7.9a1.057,1.057,0,0,1,.352-.053A1.148,1.148,0,0,1,148-7.9a.683.683,0,0,1,.277.167.822.822,0,0,1,.176.321,1.627,1.627,0,0,1,.062.479V0h1.934V-6.917A4.645,4.645,0,0,0,150.3-8.2a2.333,2.333,0,0,0-.435-.866,1.754,1.754,0,0,0-.664-.47,2.229,2.229,0,0,0-.839-.154,2.251,2.251,0,0,0-.646.088,1.965,1.965,0,0,0-.532.246,1.818,1.818,0,0,0-.343.3,2.531,2.531,0,0,0-.281.378,1.837,1.837,0,0,0-.211-.391,1.417,1.417,0,0,0-.281-.294,1.3,1.3,0,0,0-.483-.246,2.338,2.338,0,0,0-.633-.079,2.009,2.009,0,0,0-1.156.325,2.2,2.2,0,0,0-.751.9Zm10.09,0v1.749H156V-1.74H153.07V0h7.84V-1.74h-2.795V-9.51Zm2.733-2.461a1.049,1.049,0,0,0,.163.584.841.841,0,0,0,.479.347,1.113,1.113,0,0,0,.563.044.92.92,0,0,0,.439-.22.938.938,0,0,0,.563-.382.9.9,0,0,0,.132-.672.91.91,0,0,0-.338-.62,1.173,1.173,0,0,0-.769-.242,1.44,1.44,0,0,0-.505.083,1.117,1.117,0,0,0-.382.233,1.06,1.06,0,0,0-.255.374A1.233,1.233,0,0,0,155.8-11.971ZM167.528-1.512a2.1,2.1,0,0,1-1.1-.264,1.948,1.948,0,0,1-.694-.7,2.881,2.881,0,0,1-.374-.98,5.879,5.879,0,0,1-.11-1.138V-4.9a5.767,5.767,0,0,1,.11-1.125,2.866,2.866,0,0,1,.382-.984,2.019,2.019,0,0,1,.69-.7,2.053,2.053,0,0,1,1.094-.268,2.145,2.145,0,0,1,.8.149,2.047,2.047,0,0,1,.646.4,1.8,1.8,0,0,1,.409.6,1.853,1.853,0,0,1,.145.729h1.978a3.42,3.42,0,0,0-.286-1.45,3.339,3.339,0,0,0-.822-1.134,3.762,3.762,0,0,0-1.261-.738,4.685,4.685,0,0,0-1.6-.264,4.489,4.489,0,0,0-1.912.382,3.987,3.987,0,0,0-1.375,1.033,4.351,4.351,0,0,0-.831,1.521,6.052,6.052,0,0,0-.277,1.846V-4.6a5.952,5.952,0,0,0,.281,1.85,4.415,4.415,0,0,0,.835,1.516A3.9,3.9,0,0,0,165.634-.2a4.511,4.511,0,0,0,1.92.382,4.394,4.394,0,0,0,1.507-.259,4.247,4.247,0,0,0,1.27-.716,3.32,3.32,0,0,0,.866-1.05,2.691,2.691,0,0,0,.312-1.305h-1.978a1.357,1.357,0,0,1-.163.659,1.714,1.714,0,0,1-.435.519,2.088,2.088,0,0,1-.646.338A2.442,2.442,0,0,1,167.528-1.512ZM173.8-4.843v.185a5.946,5.946,0,0,0,.3,1.925,4.467,4.467,0,0,0,.87,1.529,3.924,3.924,0,0,0,1.389,1.02,4.543,4.543,0,0,0,1.872.369,4.49,4.49,0,0,0,1.859-.369,3.934,3.934,0,0,0,1.384-1.02,4.546,4.546,0,0,0,.861-1.529,5.946,5.946,0,0,0,.3-1.925v-.185a5.957,5.957,0,0,0-.3-1.92,4.539,4.539,0,0,0-.861-1.534,4.021,4.021,0,0,0-1.393-1.02,4.512,4.512,0,0,0-1.868-.369,4.482,4.482,0,0,0-1.863.369,3.944,3.944,0,0,0-1.38,1.02,4.46,4.46,0,0,0-.87,1.534A5.957,5.957,0,0,0,173.8-4.843Zm2.1.185v-.185a5.137,5.137,0,0,1,.136-1.2,3.037,3.037,0,0,1,.426-1,2.136,2.136,0,0,1,.716-.686,2.007,2.007,0,0,1,1.033-.255,2.025,2.025,0,0,1,1.042.255,2.218,2.218,0,0,1,.725.686,3.364,3.364,0,0,1,.413,1,4.984,4.984,0,0,1,.141,1.2v.185a5.216,5.216,0,0,1-.136,1.213,3.154,3.154,0,0,1-.417,1,2.082,2.082,0,0,1-.721.681,2.041,2.041,0,0,1-1.028.25,2.078,2.078,0,0,1-1.046-.25,2.082,2.082,0,0,1-.721-.681,3.037,3.037,0,0,1-.426-1A5.216,5.216,0,0,1,175.9-4.658Z" transform="translate(447 282)" fill="#2befb3"/><path d="M5.5-1.512a2.1,2.1,0,0,1-1.1-.264,1.948,1.948,0,0,1-.694-.7,2.881,2.881,0,0,1-.374-.98A5.879,5.879,0,0,1,3.226-4.6V-4.9a5.767,5.767,0,0,1,.11-1.125,2.866,2.866,0,0,1,.382-.984,2.019,2.019,0,0,1,.69-.7A2.053,2.053,0,0,1,5.5-7.98a2.145,2.145,0,0,1,.8.149,2.047,2.047,0,0,1,.646.4,1.8,1.8,0,0,1,.409.6,1.853,1.853,0,0,1,.145.729H9.483A3.42,3.42,0,0,0,9.2-7.55a3.339,3.339,0,0,0-.822-1.134,3.762,3.762,0,0,0-1.261-.738,4.685,4.685,0,0,0-1.6-.264A4.489,4.489,0,0,0,3.608-9.3,3.987,3.987,0,0,0,2.232-8.271,4.351,4.351,0,0,0,1.4-6.75,6.052,6.052,0,0,0,1.125-4.9V-4.6a5.952,5.952,0,0,0,.281,1.85A4.415,4.415,0,0,0,2.241-1.23,3.9,3.9,0,0,0,3.608-.2a4.511,4.511,0,0,0,1.92.382A4.394,4.394,0,0,0,7.036-.075a4.247,4.247,0,0,0,1.27-.716,3.32,3.32,0,0,0,.866-1.05,2.691,2.691,0,0,0,.312-1.305H7.506a1.357,1.357,0,0,1-.163.659,1.714,1.714,0,0,1-.435.519,2.088,2.088,0,0,1-.646.338A2.442,2.442,0,0,1,5.5-1.512Zm9.536.246a1.424,1.424,0,0,0,.4,1.024,1.478,1.478,0,0,0,1.121.417,1.505,1.505,0,0,0,1.121-.413,1.4,1.4,0,0,0,.409-1.028,1.457,1.457,0,0,0-.4-1.042,1.476,1.476,0,0,0-1.125-.426,1.448,1.448,0,0,0-1.129.431A1.489,1.489,0,0,0,15.038-1.266Zm0-7.444a1.424,1.424,0,0,0,.4,1.024,1.478,1.478,0,0,0,1.121.417,1.505,1.505,0,0,0,1.121-.413,1.4,1.4,0,0,0,.409-1.028,1.457,1.457,0,0,0-.4-1.042,1.476,1.476,0,0,0-1.125-.426,1.448,1.448,0,0,0-1.129.431A1.489,1.489,0,0,0,15.038-8.71Z" transform="translate(417 282)" fill="#2befb3" opacity="0.5"/></g><g transform="translate(-5 -14)"><g transform="translate(390.978 -420.892) rotate(45)" opacity="0.5"><rect width="12" height="2" rx="1" transform="translate(704 252.178)" fill="#fff"/><rect width="12" height="2" rx="1" transform="translate(711 247.178) rotate(90)" fill="#fff"/></g><g transform="translate(689.5 255.178)" fill="none" stroke="#fff" stroke-width="2" opacity="0.5"><rect width="10" height="10" rx="2" stroke="none"/><rect x="1" y="1" width="8" height="8" rx="1" fill="none"/></g><rect width="12" height="2" rx="1" transform="translate(669.5 259.178)" fill="#fff" opacity="0.5"/></g></g></svg>